<?xml version="1.0"?>
<svg xmlns:rdf="http://www.w3.org/1999/02/22-rdf-syntax-ns#" xmlns="http://www.w3.org/2000/svg" xmlns:cc="http://web.resource.org/cc/" xmlns:dc="http://purl.org/dc/elements/1.1/" xmlns:svg="http://www.w3.org/2000/svg" id="svg2" viewBox="0 0 528.75 390.855" version="1.0">
  <path id="path9" d="m281.89 180.86c0.39 2.48 4.57 3.96 13.1 4.28 8.53 0.25 20.67-0.5 37.37-2.41l-0.94 3.17c5.26-2.81 9.26-4 12.14-3.86 2.8 0.11 2.12 2.16 4.75 4.9 2.55 2.81 6.8 8.32 10.65 11.38 3.78 2.95 7.71 4.85 11.92 6.11 2.92-1.51 5.94-3.42 8.93-5.72 3.06-2.34 5.9-5.08 9.07-8.21-1.69-4.1-2.38-7.31-1.76-9.61 0.57-2.41 3.09-4.9 5.07-4.39 1.87 0.5 3.82 2.73 5.98 7.13 2.84-0.58 4.68-0.4 5.51 0.39 0.82 0.79 0.54 2.34-0.72 4.5 1.11 0.61 1.98 1.19 2.59 1.73 0.65 0.54 1.08 0.54 0.9 1.55-0.36 0.9-1.26 2.19-2.85 3.89 2.99 1.04 3.06-1.26 3.82-0.26 0.72 0.98 1.08 3.5-0.9 4.18-1.98 0.72-3.49 0.4-6.55 2.23-3.1 1.87-7.81 3.2-10.87 7.52-3.03 4.36-3.64 13.32-6.27 16.56-2.66 3.17-4.97 3.28-9.54 2.45-4.57-0.9-12.45-5.72-17.71-7.59-5.29-1.88-10.3-0.94-13.65-3.53-3.38-2.59-5.47-6.52-6.4-11.95l-6.88 1.04c0.86 5.29 0.57 8.89-0.57 11.09-1.26 2.05 1.79 1.04-6.78 1.69-8.74 0.61-23.39 1.3-44.78 2.05 1.77-13.42 3.57-26.85 5.37-40.31z" fill-rule="evenodd" stroke="#000" stroke-miterlimit="10" stroke-width=".036"/>
  <path id="path11" d="m328.72 189.42c2.24-1.18 4.36-2.19 6.92-3.02 2.48-0.83 5.5-2.74 7.7-2.12 2.09 0.5 1.66 2.16 4.68 5.11 2.88 2.84 9.22 9.36 12.89 12.35 3.6 2.95 5.58 5.32 8.71 5.32 2.95-0.18 6.19-3.24 9.72-5.86 3.53-2.67 7.42-5.91 11.67-9.87-1.26-3.78-1.84-6.59-1.73-8.57 0.1-2.05 1.15-3.31 2.3-3.38 1.01-0.11 3.56 0.72 4.07 2.63 0.43 1.76-0.07 4.57-1.37 8.28 2.84-3.13 4.93-4.9 6.12-5.44 1.15-0.61 1.51 1.12 1.08 2.27-0.43 1.19-1.65 2.63-3.67 4.61 2.27-0.97 3.81-1.33 4.79-1.08 0.79 0.21 1.15 1.33 0.68 2.37-0.47 0.87-1.55 1.95-3.24 3.1 2.31 0.11 3.67 0.47 4.39 1.08 0.65 0.58 0.18 1.62-0.43 2.3-0.65 0.44-0.9-0.46-3.67 1.19-2.92 1.77-10.58 5.15-13.57 8.89-3.06 3.6-2.77 9.47-4.43 12.46-1.73 2.88-2.48 4.46-5.58 4.46-3.31-0.28-8.57-3.92-13.39-5.5-4.97-1.55-11.13-2.45-15.12-4.07-3.86-1.84-6.41-3.75-8.1-6.55-1.88-2.92-2.78-6.48-2.85-10.84-0.93 1.69-2.16 2.77-3.53 3.53-1.43 0.68-3.16 0.9-5.04 0.64-0.03-2.8-0.1-5.32-0.07-7.7-0.03-2.48 0.04-4.53 0.07-6.59z" fill-rule="evenodd" stroke="#000" stroke-miterlimit="10" stroke-width=".036" fill="#fff"/>
  <path id="path13" d="m283.33 185.32c6.69 1.4 13.61 2.2 21.27 2.38 7.6 0.14 15.45-0.33 23.94-1.41-1.62 3.1-2.52 6.7-2.7 10.95-0.21 4.24 1.41 10.94 1.55 14.25 0.04 3.21-0.43 4.86-1.26 4.97l-47.19 1.4c1.44-10.83 2.91-21.67 4.39-32.54z" fill-rule="evenodd" stroke="#000" stroke-miterlimit="10" stroke-width=".036" fill="#fff"/>
  <path id="path15" d="m287.79 191.3c-0.36 1.22 0.43 2.55 1.77 2.95 1.36 0.43 2.77-0.25 3.13-1.48 0.39-1.22-0.4-2.55-1.77-2.95-1.36-0.43-2.77 0.25-3.13 1.48z" fill-rule="evenodd" stroke="#000" stroke-miterlimit="10" stroke-width=".036"/>
  <path id="path17" d="m292.83 195.76c-0.39 1.22 0.43 2.56 1.77 2.95 1.36 0.43 2.77-0.25 3.13-1.47 0.39-1.23-0.43-2.56-1.77-2.96-1.36-0.43-2.77 0.26-3.13 1.48z" fill-rule="evenodd" stroke="#000" stroke-miterlimit="10" stroke-width=".036"/>
  <path id="path19" d="m301.69 192.2c-0.36 1.22 0.43 2.55 1.8 2.95 1.33 0.43 2.73-0.25 3.13-1.48 0.36-1.22-0.43-2.55-1.8-2.95-1.33-0.43-2.74 0.25-3.13 1.48z" fill-rule="evenodd" stroke="#000" stroke-miterlimit="10" stroke-width=".036"/>
  <path id="path21" d="m306.01 201.16c-0.4 1.22 0.43 2.56 1.76 2.99 1.37 0.39 2.77-0.25 3.14-1.52 0.39-1.22-0.44-2.52-1.77-2.95-1.37-0.39-2.77 0.26-3.13 1.48z" fill-rule="evenodd" stroke="#000" stroke-miterlimit="10" stroke-width=".036"/>
  <path id="path23" d="m316.88 198.21c-0.4 1.22 0.4 2.55 1.76 2.95 1.37 0.43 2.78-0.25 3.14-1.48 0.36-1.22-0.44-2.55-1.77-2.95-1.37-0.43-2.77 0.25-3.13 1.48z" fill-rule="evenodd" stroke="#000" stroke-miterlimit="10" stroke-width=".036"/>
  <path id="path25" d="m312.34 190.83c-0.39 1.22 0.44 2.55 1.77 2.95 1.37 0.43 2.77-0.25 3.13-1.48 0.4-1.22-0.43-2.55-1.76-2.95-1.37-0.43-2.78 0.25-3.14 1.48z" fill-rule="evenodd" stroke="#000" stroke-miterlimit="10" stroke-width=".036"/>
  <path id="path27" d="m318.03 210.81c-0.39 1.22 0.4 2.55 1.77 2.99 1.37 0.39 2.77-0.26 3.13-1.48 0.36-1.23-0.43-2.56-1.76-2.99-1.37-0.39-2.78 0.25-3.14 1.48z" fill-rule="evenodd" stroke="#000" stroke-miterlimit="10" stroke-width=".036"/>
  <path id="path29" d="m309 211.53c-0.4 1.22 0.39 2.55 1.76 2.95 1.37 0.43 2.77-0.25 3.13-1.48 0.4-1.22-0.43-2.55-1.76-2.95-1.37-0.43-2.77 0.25-3.13 1.48z" fill-rule="evenodd" stroke="#000" stroke-miterlimit="10" stroke-width=".036"/>
  <path id="path31" d="m297.62 211.92c-0.36 1.23 0.43 2.56 1.8 2.96 1.33 0.39 2.74-0.26 3.13-1.48 0.36-1.23-0.43-2.56-1.8-2.95-1.37-0.43-2.77 0.21-3.13 1.47z" fill-rule="evenodd" stroke="#000" stroke-miterlimit="10" stroke-width=".036"/>
  <path id="path33" d="m298.7 203.79c-0.4 1.22 0.4 2.55 1.76 2.99 1.37 0.39 2.78-0.26 3.14-1.48 0.36-1.23-0.43-2.56-1.77-2.99-1.37-0.39-2.77 0.25-3.13 1.48z" fill-rule="evenodd" stroke="#000" stroke-miterlimit="10" stroke-width=".036"/>
  <path id="path35" d="m288.69 208.54c-0.39 1.22 0.4 2.56 1.77 2.99 1.37 0.39 2.77-0.25 3.13-1.48 0.36-1.22-0.43-2.56-1.76-2.99-1.37-0.39-2.78 0.26-3.14 1.48z" fill-rule="evenodd" stroke="#000" stroke-miterlimit="10" stroke-width=".036"/>
  <path id="path37" d="m282.75 212.9c-0.36 1.22 0.43 2.55 1.8 2.95 1.33 0.43 2.74-0.25 3.13-1.48 0.36-1.22-0.43-2.55-1.8-2.95-1.36-0.43-2.73 0.25-3.13 1.48z" fill-rule="evenodd" stroke="#000" stroke-miterlimit="10" stroke-width=".036"/>
  <path id="path39" d="m237.86 204.58l63.83-125.24c3.6 0.319 7.88 3.415 12.85 9.283 5.04 5.868 10.4 14.367 16.78 25.777 10.69 0.11 18.36 1.66 23.69 4.79 5.21 3.13 7.66 7.59 7.48 13.79 5.58-17.86 7.74-33.665 6.88-48.533-1.08-14.832-5.87-28.296-12.57-39.564-6.72-11.376-15.87-20.484-27.57-27.864 1.87-5.076 2.66-8.64 2.09-11.088-0.72-2.556-3.53-4.428-5.37-3.276-1.76 1.26-3.42 4.572-5.11 10.476-6.37-5.652-13.71-9.396-22.17-11.376-8.57-2.016-19.3-2.412-28.44-0.612-9.04 1.62-17.35 4.104-25.78 10.8-8.57 6.696-16.81 16.2-25.16 29.052 7.49-3.456 14.65-4.104 22.17-2.088 7.42 2.052 17.21 8.136 22.18 14.364 4.9 6.084 7.24 13.284 7.16 21.888 3.24-0.144 6.7 0 10.8 0.288 4.04 0.252 8.28 0.756 13.18 1.512l-59 121.93c0.68 1.87 1.36 3.78 2.08 5.69z" fill-rule="evenodd" stroke="#000" stroke-miterlimit="10" stroke-width=".036"/>
  <path id="path41" d="m227.96 34.695c4.75-7.452 10.4-13.645 17.1-18.576 6.7-5.004 14.51-9.072 22.75-11.088 8.1-2.088 17.71-2.664 25.78-1.188 8.06 1.44 15.26 4.536 22.17 9.576-6.37 2.772-12.42 7.668-18.57 14.688-6.19 7.02-14.19 20.412-18 27.252-3.89 6.696-5.58 10.944-5.08 12.888-0.97-9.396-3.67-16.488-8.39-21.852-4.78-5.328-13.46-8.028-19.76-9.9-6.34-2.016-12.24-2.52-18-1.8z" fill-rule="evenodd" stroke="#000" stroke-miterlimit="10" stroke-width=".036" fill="#fff"/>
  <path id="path43" d="m277.1 72.459c2.23-9.18 5.18-17.172 9-24.264 3.71-7.092 8.03-12.996 13.79-18 5.72-5.148 15.66-13.536 20.66-11.988 4.94 1.62 6.48 10.656 8.68 21.276 1.98 10.584 3.27 29.7 3.89 41.652 0.61 11.844 0.61 21.205 0 28.765-5.76-11.053-11.31-19.297-16.78-25.165-5.54-5.868-9.36-7.92-15.88-9.9-6.66-2.052-14.25-2.844-23.36-2.376z" fill-rule="evenodd" stroke="#000" stroke-miterlimit="10" stroke-width=".036" fill="#fff"/>
  <path id="path45" d="m337.33 109.9c0.07-20.089-0.43-36.397-1.51-50.041-1.12-13.644-5.58-25.272-5.08-30.852 0.43-5.472 3.2-5.292 7.49-2.088 4.21 3.132 13.07 11.916 17.68 20.664 4.53 8.64 8.24 18.324 9.57 30.852 1.3 12.456 0.47 26.745-2.09 43.455-2.66-2.81-6.15-5.26-10.47-7.2-4.4-2.05-9.54-3.6-15.59-4.79z" fill-rule="evenodd" stroke="#000" stroke-miterlimit="10" stroke-width=".036" fill="#fff"/>
  <path id="path47" d="m204.52 206.96c26.18-24.27 48.5-43.78 68.33-59.91 19.69-16.16 33.81-24.98 49.14-35.64 15.16-10.76 32.73-23.795 41.33-27.575 8.43-3.672 11.02-0.612 9.58 5.688-1.48 6.264-7.56 16.527-18.26 31.467 2.92 3.78 5.77 6.08 8.68 7.2 2.88 1.04 5.58-0.04 8.39-0.9 2.66-0.9 5.25-2.63 7.78-4.79-4.69 10.37-9.73 17.28-14.98 21.56-5.4 4.14-12.39 4.22-16.78 3.28-4.35-1.12-7.45-4.18-9.29-9.58-6.51 6.12-15.94 13.68-28.43 23.08-12.64 9.36-30.24 21.96-46.44 32.65-16.31 10.59-32.76 20.63-50.33 30.56l-11.41 5.4c0.89-7.48 1.79-14.97 2.69-22.49z" fill-rule="evenodd" stroke="#000" stroke-miterlimit="10" stroke-width=".036"/>
  <path id="path49" d="m206.94 209.08c15.4-14.26 30.49-27.61 45.82-40.75 15.27-13.21 31.47-26.71 45.54-37.44 14.08-10.87 26.72-19.12 38.06-26.68 11.3-7.667 25.84-18.719 28.76-18.575 2.59 0.288-0.25 8.028-12.56 19.765-12.53 11.59-43.27 35.89-61.13 49.43-17.93 13.35-30.89 20.88-45.25 30.89-14.4 9.97-27.69 19.4-40.43 28.72 0.39-1.76 0.79-3.56 1.19-5.36z" fill-rule="evenodd" stroke="#000" stroke-miterlimit="10" stroke-width=".036" fill="#fff"/>
  <path id="path51" d="m206.04 215.67c16.7-9.97 33.08-20.27 49.71-31.18 16.74-10.98 35.64-23.97 49.47-34.13 13.53-10.29 21.99-18.21 31.75-26.96 9.68-8.78 20.45-18.94 26.06-25.201 5.4-6.336 7.6-10.296 6.59-12.276 1.48 1.224 1.73 3.276 0.9 6.3-0.9 2.916-1.48 5.472-6.01 11.697-4.79 6.3-12.17 16.6-21.57 25.74-9.36 9-18.1 16.13-34.16 28.19-16.31 12.06-44.71 31.9-62.32 43.42-17.64 11.3-31.53 19.29-42.51 24.26 0.68-3.27 1.37-6.55 2.09-9.86z" fill-rule="evenodd" stroke="#000" stroke-miterlimit="10" stroke-width=".036" fill="#fff"/>
  <path id="path53" d="m352.23 124.88c1.08 2.37 2.88 4.03 5.4 5.11 2.52 0.97 6.91 1.51 9.58 1.19 2.59-0.44 4.35-1.41 5.69-3.32-3.86 6.99-7.74 11.74-11.67 14.4-3.96 2.52-8.78 2.13-11.98 1.19-3.32-1.01-5.91-3.2-7.78-6.87 3.56-3.89 7.16-7.78 10.76-11.7z" fill-rule="evenodd" stroke="#000" stroke-miterlimit="10" stroke-width=".036" fill="#fff"/>
  <path id="path55" d="m267.34 180.24c1.08 2.31 5.55 2.45 13.79 0.29 8.28-2.27 19.69-6.48 35.07-13.17v3.27c4.21-4.17 7.7-6.51 10.47-7.16 2.74-0.65 2.7 1.37 6.01 3.27 3.35 1.84 8.86 6.02 13.47 7.82 4.43 1.69 8.82 2.48 13.18 2.37 2.37-2.27 4.68-5 6.91-8.06 2.16-3.13 4.25-6.59 6.26-10.51-2.84-3.46-4.28-6.3-4.46-8.68-0.15-2.56 1.55-5.47 3.56-5.69 1.87-0.11 4.43 1.59 7.81 5.08 2.6-1.41 4.39-1.8 5.4-1.19 0.94 0.5 1.23 2.05 0.58 4.5 1.29 0.18 2.19 0.58 2.99 0.9 0.64 0.22 1.36 0.25 1.33 1.22-0.11 0.94-0.54 2.45-1.59 4.54 3.14 0.14 2.56-2.09 3.53-1.37 1.01 0.76 2.05 3.03 0.4 4.29-1.69 1.26-3.24 1.4-5.65 4.03-2.41 2.7-6.52 5.33-8.21 10.37-1.62 5.04 0.39 13.82-1.19 17.67-1.62 3.78-3.78 4.57-8.39 5.08-4.64 0.5-13.57-1.84-19.15-2.09-5.62-0.25-10.12 2.09-14.11 0.57-3.96-1.51-7.09-4.64-9.58-9.57l-6.3 2.99c2.34 4.75 3.24 8.35 2.7 10.8-0.65 2.37 2.09 0.43-5.97 3.6-8.18 3.13-22.04 8.02-42.27 14.97-2.19-13.35-4.39-26.74-6.59-40.14z" fill-rule="evenodd" stroke="#000" stroke-miterlimit="10" stroke-width=".036"/>
  <path id="path57" d="m314.65 174.81c1.8-1.77 3.67-3.35 5.76-4.9 1.98-1.62 4.53-4.21 6.69-4.28 2.06-0.15 2.31 1.55 6.02 3.56 3.71 1.98 11.41 6.16 15.87 8.07 4.25 1.76 6.95 3.45 9.9 2.55 2.88-1.01 4.9-4.93 7.6-8.42 2.63-3.67 5.4-7.78 8.31-12.85-2.26-3.24-3.7-5.76-4.17-7.71-0.43-2.01 0.11-3.49 1.22-3.89 1.05-0.5 3.57-0.25 4.65 1.34 0.9 1.65 1.36 4.28 1.11 8.31 1.91-3.85 3.21-6.08 4.29-6.98 1.04-0.87 1.65 0.54 1.69 1.83-0.04 1.23-0.9 3.06-2.2 5.51 1.95-1.65 3.28-2.34 4.29-2.45 0.79-0.07 1.51 1.05 1.33 2.09-0.11 1.01-0.94 2.27-2.2 3.93 2.2-0.47 3.71-0.69 4.54-0.26 0.72 0.33 0.75 1.52 0.25 2.31-0.54 0.75-1.01-0.33-3.2 2.19-2.34 2.52-8.57 8.03-10.37 12.5-1.91 4.28 0.11 9.93-0.61 13.21-0.83 3.17-0.98 5.07-4.04 5.87-3.2 0.72-9.35-1.26-14.43-1.37-5.19-0.18-11.38 1.01-15.66 0.5-4.25-0.61-7.09-1.73-9.65-3.92-2.63-2.27-4.53-5.4-5.87-9.54-0.47 1.83-1.15 3.31-2.34 4.43-1.18 1.04-2.73 1.72-4.64 2.05-0.9-2.67-1.62-5.01-2.3-7.31-0.69-2.3-1.3-4.43-1.84-6.37z" fill-rule="evenodd" stroke="#000" stroke-miterlimit="10" stroke-width=".036" fill="#fff"/>
  <path id="path59" d="m270.04 184.1c6.84-0.62 13.72-1.88 21.03-3.93 7.31-2.16 14.61-4.75 22.46-8.31-0.68 3.52-0.43 7.05 0.61 11.26 1.01 4.18 4.61 9.98 5.66 13.22 0.97 2.98 1.04 4.78 0.21 5.11l-44.71 15.05c-1.73-10.8-3.49-21.6-5.26-32.4z" fill-rule="evenodd" stroke="#000" stroke-miterlimit="10" stroke-width=".036" fill="#fff"/>
  <path id="path61" d="m276.02 188.49c0 1.29 1.15 2.34 2.56 2.34 1.44 0 2.59-1.05 2.59-2.34 0-1.26-1.15-2.31-2.59-2.31-1.41 0-2.56 1.05-2.56 2.31z" fill-rule="evenodd" stroke="#000" stroke-miterlimit="10" stroke-width=".036"/>
  <path id="path63" d="m282.14 191.3c0 1.29 1.15 2.34 2.56 2.34 1.4 0 2.55-1.05 2.55-2.34 0-1.26-1.15-2.31-2.55-2.31-1.41 0-2.56 1.05-2.56 2.31z" fill-rule="evenodd" stroke="#000" stroke-miterlimit="10" stroke-width=".036"/>
  <path id="path65" d="m289.59 185.32c0 1.3 1.15 2.34 2.56 2.34 1.44 0 2.59-1.04 2.59-2.34s-1.15-2.34-2.59-2.34c-1.4 0-2.56 1.04-2.56 2.34z" fill-rule="evenodd" stroke="#000" stroke-miterlimit="10" stroke-width=".036"/>
  <path id="path67" d="m296.33 192.66c0 1.26 1.15 2.31 2.55 2.31 1.41 0 2.56-1.05 2.56-2.31 0-1.29-1.15-2.34-2.56-2.34-1.4 0-2.55 1.05-2.55 2.34z" fill-rule="evenodd" stroke="#000" stroke-miterlimit="10" stroke-width=".036"/>
  <path id="path69" d="m305.86 186.65c0 1.3 1.12 2.34 2.56 2.34 1.41 0 2.56-1.04 2.56-2.34 0-1.26-1.15-2.3-2.56-2.3-1.44 0-2.56 1.04-2.56 2.3z" fill-rule="evenodd" stroke="#000" stroke-miterlimit="10" stroke-width=".036"/>
  <path id="path71" d="m299.38 180.93c0 1.26 1.12 2.3 2.56 2.3 1.4 0 2.56-1.04 2.56-2.3 0-1.3-1.15-2.34-2.56-2.34-1.44 0-2.56 1.04-2.56 2.34z" fill-rule="evenodd" stroke="#000" stroke-miterlimit="10" stroke-width=".036"/>
  <path id="path73" d="m310.62 198.39c0 1.29 1.15 2.34 2.55 2.34 1.44 0 2.6-1.05 2.6-2.34 0-1.26-1.16-2.31-2.6-2.31-1.4 0-2.55 1.05-2.55 2.31z" fill-rule="evenodd" stroke="#000" stroke-miterlimit="10" stroke-width=".036"/>
  <path id="path75" d="m302.19 201.7c0 1.3 1.15 2.34 2.56 2.34s2.55-1.04 2.55-2.34-1.14-2.3-2.55-2.3-2.56 1-2.56 2.3z" fill-rule="evenodd" stroke="#000" stroke-miterlimit="10" stroke-width=".036"/>
  <path id="path77" d="m291.43 205.37c0 1.3 1.15 2.34 2.56 2.34 1.4 0 2.55-1.04 2.55-2.34 0-1.29-1.15-2.34-2.55-2.34-1.41 0-2.56 1.05-2.56 2.34z" fill-rule="evenodd" stroke="#000" stroke-miterlimit="10" stroke-width=".036"/>
  <path id="path79" d="m290.06 197.31c0 1.26 1.15 2.3 2.59 2.3 1.41 0 2.56-1.04 2.56-2.3 0-1.3-1.15-2.34-2.56-2.34-1.44 0-2.59 1.04-2.59 2.34z" fill-rule="evenodd" stroke="#000" stroke-miterlimit="10" stroke-width=".036"/>
  <path id="path81" d="m281.89 204.76c0 1.3 1.15 2.34 2.55 2.34 1.44 0 2.6-1.04 2.6-2.34s-1.16-2.34-2.6-2.34c-1.4 0-2.55 1.04-2.55 2.34z" fill-rule="evenodd" stroke="#000" stroke-miterlimit="10" stroke-width=".036"/>
  <path id="path83" d="m277.5 210.63c0 1.29 1.15 2.34 2.55 2.34 1.41 0 2.56-1.05 2.56-2.34 0-1.3-1.15-2.34-2.56-2.34-1.4 0-2.55 1.04-2.55 2.34z" fill-rule="evenodd" stroke="#000" stroke-miterlimit="10" stroke-width=".036"/>
  <path id="path85" stroke-linejoin="round" d="m188.72 186.11c0 33.52 7.99 66.24 32.65 66.24s77.29-36.32 77.29-69.84c0-33.48-21.49-61.09-46.15-61.09-24.62 0-63.79 31.21-63.79 64.69z" fill-rule="evenodd" stroke="#000" stroke-linecap="round" stroke-miterlimit="10" stroke-width=".9978"/>
  <path id="path87" stroke-linejoin="round" d="m230.67 188.2c4.79 0 8.68 5.56 8.68 12.42 0 6.85-3.89 12.42-8.68 12.42s-8.67-5.56-8.67-12.42 3.88-12.42 8.67-12.42" fill-rule="evenodd" stroke="#000" stroke-linecap="round" stroke-miterlimit="10" stroke-width=".036" fill="#fff"/>
  <path id="path89" stroke-linejoin="round" d="m232.46 185.54c-0.65-3.78-0.25-9.33 1.19-16.78 1.51-7.52 4.43-20.38 7.49-27.86 2.84-7.56 6.19-13.22 9.9-17.1 6.08 0.82 11.37 2.23 15.87 4.21 4.43 1.94 7.71 4.07 11.09 7.49 3.38 3.34 6.98 8.46 9.29 12.56 2.19 3.96 3.49 7.81 3.89 11.41-9.47 4.32-18.18 9.22-26.68 14.98-8.6 5.76-16.31 11.95-23.94 19.15-0.72-2.3-1.73-3.96-3.02-5.36-1.41-1.37-3.1-2.27-5.08-2.7z" fill-rule="evenodd" stroke="#000" stroke-linecap="round" stroke-miterlimit="10" stroke-width=".036" fill="#fff"/>
  <path id="path91" stroke-linejoin="round" d="m228.86 185.82c-0.47-2.8-0.07-7.45 0.9-14.07 0.97-6.73 2.34-17.68 5.08-25.49 2.66-7.85 6.4-14.83 11.08-21.24-7.74 1.01-14.97 3.67-21.85 8.39-6.95 4.57-15.33 14.58-19.47 19.47-4.18 4.79-6.12 8.03-5.69 9.58 3.35 4.57 6.95 8.96 11.09 13.46 4.14 4.43 8.53 8.82 13.46 13.18-0.94 0.5-0.94 0.5 0 0 0.86-0.58 2.66-1.62 5.4-3.28z" fill-rule="evenodd" stroke="#000" stroke-linecap="round" stroke-miterlimit="10" stroke-width=".036" fill="#fff"/>
  <path id="path93" stroke-linejoin="round" d="m220.76 191.51c-1.69-1.04-4.36-3.49-8.39-7.77-4.03-4.29-9.21-10.08-15.55-17.68-2.23 3.06-3.6 6.95-4.5 11.66-0.94 4.79-0.86 10.34-0.61 16.49 0.14 5.98 0.79 14.69 1.8 19.48 1.01 4.71 2.12 7.56 3.89 8.67l22.46-14.97c-1.22-2.77-1.58-5.47-1.48-8.1 0.11-2.67 0.9-5.26 2.38-7.78z" fill-rule="evenodd" stroke="#000" stroke-linecap="round" stroke-miterlimit="10" stroke-width=".036" fill="#fff"/>
  <path id="path95" stroke-linejoin="round" d="m243.22 195.4c3.68-3.56 9.29-7.81 17.39-12.89 8.07-5.15 18.07-10.94 30.57-17.67 3.09 5.04 4.39 10.4 3.88 16.77-0.61 6.23-2.8 13.36-7.16 20.7-4.43 7.38-10.58 14.87-18.9 23.04-5.87-4.03-10.91-7.67-15.26-11.05-4.4-3.49-8-6.44-10.8-9.29-0.08-1.69-0.08-3.17 0-4.82 0.07-1.66 0.07-3.21 0.28-4.79z" fill-rule="evenodd" stroke="#000" stroke-linecap="round" stroke-miterlimit="10" stroke-width=".036" fill="#fff"/>
  <path id="path97" stroke-linejoin="round" d="m220.47 209.8l-23.65 16.16c1.04 5.12 2.95 9.51 6.26 13.18 3.24 3.64 8.14 7.24 12.89 8.71 4.65 1.37 9.4 1.26 14.69-0.32l-1.19-30.85c-2.52-0.44-4.57-1.23-6.01-2.38-1.51-1.15-2.56-2.7-2.99-4.5z" fill-rule="evenodd" stroke="#000" stroke-linecap="round" stroke-miterlimit="10" stroke-width=".036" fill="#fff"/>
  <path id="path99" stroke-linejoin="round" d="m234.26 216.1c0.29 0.29 1.08-0.22 2.38-1.51 1.29-1.37 3.09-3.42 5.4-6.3l22.17 19.47c-5.43 5.76-10.58 10.16-15.59 13.18-5.04 2.99-9.82 4.54-14.36 4.79v-29.63z" fill-rule="evenodd" stroke="#000" stroke-linecap="round" stroke-miterlimit="10" stroke-width=".036" fill="#fff"/>
  <path id="path101" stroke-linejoin="round" d="m155.24 181.25c0.25-0.97-0.04 2.05-1.15 9.61-1.15 7.46-4.47 27.98-5.37 35.03-1 6.91-0.03 2.2 0 6.66-0.07 4.46-0.07 10.91-0.14 19.73l40.54-0.18c0.5-12.49 0.14-24.37-1.48-36.47-1.66-12.06-4.18-23.65-7.96-35.35-8.13 0.32-16.27 0.65-24.44 0.97z" fill-rule="evenodd" stroke="#000" stroke-linecap="round" stroke-miterlimit="10" stroke-width=".036"/>
  <path id="path103" stroke-linejoin="round" d="m156.72 182.4c-0.26 3.32-0.8 8.75-1.62 16.46-0.9 7.74-3.06 20.66-3.42 29.62-0.47 8.93-0.15 16.42 0.97 23.3l34.52-0.65c0.29-8.1 0.15-16.38-0.83-25.42-1-9.18-3.27-20.84-4.71-28.33-1.55-7.38-2.77-12.49-4.07-15.62-6.95 0.21-13.9 0.43-20.84 0.64z" fill-rule="evenodd" stroke="#000" stroke-linecap="round" stroke-miterlimit="10" stroke-width=".036" fill="#fff"/>
  <path id="path105" stroke-linejoin="round" d="m149.26 106.88c-11.3-0.9-21.31-1.3-30.56-1.19-9.22 0.03-17.35 0.72-24.551 1.76-2.304-1.73-4.86-2.59-7.524-2.99-2.808-0.43-6.3-0.32-8.676 0.9-2.556 1.26-6.3 4.61-5.688 6.3 0.756 1.52 3.924 2.56 9.9 2.99-1.62 1.26-2.628 2.31-3.024 2.99-0.468 0.72-0.216 1.08 0.612 1.22-1.008 1.41-1.512 2.45-1.512 3.28 0 0.76 0.504 1.26 1.512 1.51-0.936 1.59-1.08 2.74-0.288 3.89 0.756 1.01 2.16 2.74 4.788 2.41 2.664-0.39 7.596-3.56 10.476-4.5 2.52-1.08 2.88-1.47 5.395-1.19 2.52 0.33 4.11 2.2 9.9 2.99 5.91 0.76 17.61 1.15 24.56 1.19 6.73-0.07 12.02-0.72 15.87-1.8-1.65 2.7-1.8 4.5-0.57 5.4 1.26 0.9 3.85 0.9 8.06 0-2.48 2.48-4.54 5.58-6.3 9.29-1.73 3.67-3.17 7.92-4.18 12.89-1.72 0-3.27 0.32-4.5 0.57-1.22 0.22-1.8-0.21-2.98 1.23-1.34 1.33-3.86 4.64-4.79 7.16-1.01 2.45-1.44 5.98-0.9 7.52 0.5 1.44 2.77 1.66 3.89 1.48 1-0.22 1.65-1.12 2.08-2.7 1.7 1.91 2.85 2.66 3.89 2.41 0.9-0.39 1.55-1.65 1.8-4.21 0.61 2.2 1.59 3.1 3.31 2.41 1.62-0.72 3.82-2.77 6.59-6.3-1.15 4.65-1.8 8.39-2.09 11.38-0.36 2.95-0.21 5 0.29 6.3 4.21 1.58 8.61 2.23 13.18 2.09 4.57-0.26 9.21-1.3 14.07-3.28-1.15-9.58-1.08-18.83 0.62-28.15 1.58-9.43 6.3-20.85 9-27.58 2.59-6.8 7.05-9.11 6.87-12.89-0.32-3.88-3.02-7.23-8.39-10.18 0.36-2.561 1.52-5.261 3.6-8.105 2.06-2.916 7.67-5.58 8.68-8.964 0.9-3.528-2.09-9.828-3.28-11.7-1.26-1.8-2.66-1.728-4.21 0.612-1.15-1.152-0.5-2.484 1.8-3.6 2.34-1.152 6.19-2.484 11.99-3.6-4.1-0.36-5.76-1.008-5.11-1.8 0.72-1.008 8.35-2.376 9-3.276 0.47-0.828-6.34-0.684-5.98-1.8 0.36-1.332 8.14-3.96 7.78-5.4-0.72-1.512-10.95-2.16-10.8-3.312 0.25-1.26 10.83-2.592 12.31-3.6 1.22-1.08-3.6-1.404-4.21-2.376-0.58-1.044 1.47-2.52 0.61-3.6-1.04-1.224-6.98-1.944-6.3-2.988 0.65-1.08 11.12-1.944 10.48-2.988-0.8-1.044-9.72-3.168-14.98-3.024-5.44-0.036-13.25 1.908-16.78 3.312-3.56 1.44-4.86 2.988-4.17 5.076-0.58-4.464-0.58-8.604 0-12.564 0.54-3.996 1.26-7.56 3.27-11.088 1.98-3.636 4.65-7.128 8.39-10.476l-9.29-1.8c-2.34 2.232-4.28 5.58-5.97 10.188-1.8 4.644-3.39 11.952-4.21 17.064-0.9 4.932-1.16 8.928-0.9 12.276-2.56-1.008-4.25-0.756-5.37 0.612-1.11 1.404-0.83 4.5-1.22 7.488-0.47 2.808-1.01 6.048-1.48 9.576-4.46 3.312-6.98 5.58-8.1 7.2-1.08 1.44-0.11 1.44 1.8 2.088 1.84 0.612 4.93 1.44 9.29 2.088-0.07 3.096-0.04 6.948-0.29 11.988-0.14 4.968-0.57 10.728-0.9 17.673-4.43-0.5-7.88-0.39-10.51 0.33-2.63 0.68-4.32 1.98-5.08 3.89z" fill-rule="evenodd" stroke="#000" stroke-linecap="round" stroke-miterlimit="10" stroke-width=".036"/>
  <path id="path107" stroke-linejoin="round" d="m179.72 40.167c1.15-1.872 3.82-3.312 7.85-4.464 4.14-1.26 12.42-2.016 16.38-2.268 3.81-0.252 7.63 0.396 6.44 0.972-1.4 0.432-12.6 1.332-14 2.016-1.41 0.576 5.69 1.224 5.58 1.8-0.36 0.504-7.63 0.972-6.81 1.404 0.87 0.324 11.06 0.72 12.1 1.044 0.83 0.18-6.8 0.252-6.52 0.792 0.33 0.54 8.1 1.836 8.36 2.628 0.1 0.648-7.49 1.296-7.24 1.656 0.22 0.18 8.89-0.036 8.82 0.324-0.22 0.324-8.1 1.368-9.61 2.016-1.55 0.54 0.86 0.9 0.43 1.476-0.58 0.432-4.64 0.792-3.31 1.476 1.29 0.648 10.47 1.764 11.59 2.52 0.97 0.648-4.72 0.972-5.11 1.512-0.51 0.288 2.91 0.684 2.77 1.044-0.25 0.36-2.02 1.224-3.49 1.476-1.48 0.145-1.98-0.324-4.97-0.432-3.02-0.18-7.38-0.54-13.07-0.792-1.15-3.348-1.65-5.76-1.65-7.236 0.07-1.584 1.9-1.116 1.76-1.656-0.36-0.612-3.28-0.9-3.6-1.404-0.32-0.684 1.51-1.188 1.33-1.656-0.39-0.432-3.06-0.54-3.42-0.864-0.43-0.468 1.12-1.008 1.05-1.476-0.22-0.54-1.44-0.9-1.73-1.224-0.33-0.36-0.25-0.54 0.07-0.684z" fill-rule="evenodd" stroke="#000" stroke-linecap="round" stroke-miterlimit="10" stroke-width=".036" fill="#fff"/>
  <path id="path109" stroke-linejoin="round" d="m187.68 62.199c0.57 1.116 1.33 2.196 2.26 3.384 0.87 1.188 1.26 3.312 3.14 3.6 1.8 0.144 6.58-2.016 7.56-2.448 0.79-0.54-2.67-0.036-2.6-0.432-0.07-0.396 2.56-1.548 2.6-1.908-0.04-0.432-2.99-0.54-2.45-0.72 0.5-0.288 2.27-0.647 5.43-0.936-2.55-0.18-5.14-0.252-7.77-0.36-2.74-0.072-5.37-0.18-8.17-0.18z" fill-rule="evenodd" stroke="#000" stroke-linecap="round" stroke-miterlimit="10" stroke-width=".036" fill="#fff"/>
  <path id="path111" stroke-linejoin="round" d="m186.34 62.379l-5.9-0.108c-0.04 1.512-0.65 3.132-1.84 4.716-1.33 1.548-3.63 3.96-5.4 4.896-1.83 0.864-3.92 0.756-5.14 0.504-1.26-0.396-1.7-1.116-2.27-2.448-0.61-1.404-1.15-4.428-1.48-5.472-0.43-1.08-0.83-1.368-1.04-0.864-3.93 2.016-6.05 3.564-6.52 4.788-0.54 1.152 2.05 1.584 3.75 2.268 1.72 0.54 3.85 1.044 6.51 1.368l-0.18 2.448c0.33 1.116 1.33 1.656 3.42 1.476 1.95-0.216 6.09-1.332 8.53-2.52 2.34-1.224 4.4-4.572 5.48-4.788 0.93-0.288 1.04 1.332 0.61 3.06-0.51 1.62-2.7 4.176-3.39 6.696-0.75 2.448-0.5 4.572-1.04 8.028-0.76 3.348-1.94 10.152-2.88 12.204-0.94 1.839-1.94 1.409-2.63-0.612-0.68-2.088-1.15-9.036-1.83-11.412-0.94-2.52-2.49-1.8-3.28-3.132-0.79-1.368-1.3-3.024-1.51-4.968l-1.12-0.432c-0.32 3.528-0.5 7.236-0.54 10.98-0.18 3.816-0.36 7.74 0 11.485 0.15 3.71 0.29 8.17 1.84 10.04 1.62 1.59 4.5 1.34 7.67-0.18 3.09-1.62 8.02-6.33 10.62-9.14 2.3-2.954 2.12-5.762 3.92-8.03 1.84-2.34 5.29-3.564 6.91-5.472 1.51-1.944 2.05-3.888 2.16-6.12-0.11-2.376-1.15-6.552-2.16-7.668-1.08-1.152-2.37-0.864-4.03 0.864-0.68-1.908-1.12-3.06-1.3-3.996-0.25-0.9-0.25-1.26 0-1.224-1.69-1.296-3.02-2.376-3.99-3.636-1.01-1.259-1.66-2.411-1.95-3.599z" fill-rule="evenodd" stroke="#000" stroke-linecap="round" stroke-miterlimit="10" stroke-width=".036" fill="#fff"/>
  <path id="path113" stroke-linejoin="round" d="m181.56 73.467c-0.51 1.26-1.7 2.268-3.57 3.024-1.98 0.756-4.5 1.26-7.85 1.512-0.57 1.116-0.43 2.16 0.29 3.132 0.76 0.828 3.13 1.116 4.07 2.52 0.68 1.404 0.18 5.868 0.86 6.012 0.69-0.036 2.52-3.636 3.42-5.508 0.8-1.944 0.72-3.852 1.3-5.58 0.43-1.836 0.97-3.492 1.48-5.112z" fill-rule="evenodd" stroke="#000" stroke-linecap="round" stroke-miterlimit="10" stroke-width=".036" fill="#fff"/>
  <path id="path115" stroke-linejoin="round" d="m164.92 62.163c-0.54-2.016-0.28-3.312 0.08-5.832 0.28-2.664 0.86-7.596 1.58-9.504 0.61-1.908 1.55-1.656 2.27-1.728 0.57-0.252 0.65-0.396 1.47 0.972 0.76 1.404 2.92 4.032 3.14 7.308 0.07 3.204-1.59 9.216-2.45 11.772-1.01 2.412-1.95 3.24-2.95 2.772-1.12-0.54-2.67-3.852-3.14-5.76z" fill-rule="evenodd" stroke="#000" stroke-linecap="round" stroke-miterlimit="10" stroke-width=".036" fill="#fff"/>
  <path id="path117" stroke-linejoin="round" d="m180.12 7.983c-0.47 0.612-1.01 1.152-1.34 1.908-0.46 0.612-0.72 1.44-1.04 2.196l5.94 2.268c0.68-1.08 1.3-1.98 1.84-2.7 0.5-0.72 0.93-1.404 1.29-1.764-2.23-0.612-4.46-1.26-6.69-1.908z" fill-rule="evenodd" stroke="#000" stroke-linecap="round" stroke-miterlimit="10" stroke-width=".036" fill="#fff"/>
  <path id="path119" stroke-linejoin="round" d="m177.49 13.635c-0.43 0.72-0.65 1.26-0.94 2.016-0.32 0.72-0.43 1.26-0.61 2.016l5.04 1.728c0.18-0.9 0.58-1.656 0.79-2.268 0.18-0.612 0.58-1.296 0.79-1.656l-5.07-1.836z" fill-rule="evenodd" stroke="#000" stroke-linecap="round" stroke-miterlimit="10" stroke-width=".036" fill="#fff"/>
  <path id="path121" stroke-linejoin="round" d="m149.37 108.75c-3.89-0.72-9.39-1.01-16.67-1.15-7.45-0.11-20.08 0.03-26.78 0.43-6.659 0.18-10.835 0.68-12.815 1.11-1.368-1.9-3.42-2.98-6.3-3.24-2.988-0.25-9.288 0.69-10.98 1.7-1.764 0.93-1.296 2.8 0.576 3.81 1.872 0.83 7.704 0.61 10.548 1.69 2.664 1.05 5.328 3.86 5.652 4.68 0.252 0.58-3.168-1-3.852-0.43-0.72 0.54-0.684 2.85-0.324 4.14 0.252 1.19 0.9 3.13 2.088 3.46 1.152 0.25 2.988-1.59 4.932-1.77 1.836-0.25 3.204-0.28 6.195 0.33 2.98 0.5 6.94 2.34 11.44 2.99 4.43 0.5 8.57 0.36 14.76 0.39 6.05-0.03 13.11-0.25 21.46-0.5-0.47-1.15-0.76-3.24-0.72-6.12 0.04-2.99 0.25-6.73 0.79-11.52z" fill-rule="evenodd" stroke="#000" stroke-linecap="round" stroke-miterlimit="10" stroke-width=".036" fill="#fff"/>
  <path id="path123" stroke-linejoin="round" d="m87.525 118.18c-1.152-1.12-2.232-1.76-3.384-1.94-1.188-0.26-3.132 0.21-3.456 0.57-0.432 0.29 0.144 1.05 1.044 1.44 0.9 0.25 3.096 0.47 4.104 0.65 0.9 0.11 1.224 0.29 1.116 0.4 0.18-0.36 0.36-0.72 0.576-1.12z" fill-rule="evenodd" stroke="#000" stroke-linecap="round" stroke-miterlimit="10" stroke-width=".036" fill="#fff"/>
  <path id="path125" stroke-linejoin="round" d="m85.581 119.69c-1.476-0.29-2.628-0.29-3.6 0-1.116 0.18-2.016 1.05-2.268 1.62-0.252 0.54-0.396 1.48 0.972 1.69 1.332 0.11 3.456-0.28 6.768-1.04l-0.252-2.16v0c-0.54-0.04-1.08-0.07-1.62-0.11z" fill-rule="evenodd" stroke="#000" stroke-linecap="round" stroke-miterlimit="10" stroke-width=".036" fill="#fff"/>
  <path id="path127" stroke-linejoin="round" d="m87.849 123c-3.024-0.1-5.04 0.22-6.048 0.83-1.044 0.51-1.152 2.16-0.324 2.88 0.756 0.65 3.168 1.48 4.608 1.37 1.404-0.22 2.376-0.97 3.456-2.41-0.648-0.47-1.152-0.97-1.368-1.37-0.288-0.47-0.396-0.9-0.324-1.3z" fill-rule="evenodd" stroke="#000" stroke-linecap="round" stroke-miterlimit="10" stroke-width=".036" fill="#fff"/>
  <path id="path129" stroke-linejoin="round" d="m164.71 128.22c-3.28 1.77-6.16 4.86-8.79 9.29-2.7 4.43-4.86 9.97-6.87 17.03 2.19 0.83 4.03 1.76 5.51 2.52 1.47 0.83 2.48 1.48 3.16 2.23 1.88-3.13 3.78-6.15 6.12-9.5 2.24-3.46 5.91-7.53 7.42-10.26 1.4-2.77 2.59-4.11 1.48-5.94-1.12-1.98-3.75-3.64-8.03-5.37z" fill-rule="evenodd" stroke="#000" stroke-linecap="round" stroke-miterlimit="10" stroke-width=".036" fill="#fff"/>
  <path id="path131" d="m140.08 157.92c-2.19 3.75-3.45 6.7-3.92 8.86-0.43 2.12 0.65 3.92 1.15 4.03 0.43-0.14 0.47-1.73 1.48-3.92 0.9-2.27 3.31-7.02 4.03-8.86 0.61-1.8 0.61-2.48 0-1.91l-2.74 1.8z" fill="#fff" fill-rule="evenodd"/>
  <path id="path133" d="m145.77 157.38c-0.97 0.47-2.63 2.63-3.17 4.54-0.68 1.76-0.72 4.79-0.54 6.16 0.11 1.22 0.8 1.76 1.37 1.47 0.47-0.32 0.65-1.73 1.51-3.38 0.72-1.77 3.03-5.4 3.17-6.88 0.07-1.51-1.4-2.37-2.34-1.91z" fill="#fff" fill-rule="evenodd"/>
  <path id="path135" d="m150.85 159.08c-1.05 0.86-1.84 4.06-2.23 5.72-0.29 1.51-0.18 3.2 0.32 3.28 0.36-0.08 1.04-1.84 1.91-3.21 0.75-1.47 2.81-4.21 2.84-5.15-0.03-1.11-2.09-1.47-2.84-0.64z" fill="#fff" fill-rule="evenodd"/>
  <path id="path137" stroke-linejoin="round" d="m157.51 130.42c-1.19 0.36-2.27 0.47-3.39 0.32-1.18-0.18-2.52 1.3-3.16-1.26-0.69-2.73-1.16-10.44-0.83-14.5 0.21-4.07-0.22-7.53 2.3-9.4 2.52-1.94 6.59-2.48 12.6-1.91 0.47 3.49 1.48 5.94 2.74 7.63 1.26 1.55 2.91 2.2 4.97 2.09 1.9-0.07 4.06-1.08 6.76-2.73 2.63-1.73 5.66-4.5 9.08-7.92 2.41 0.68 4.24 1.72 5.5 3.27 1.19 1.55 2.42 3.53 2.02 5.8-0.58 2.09-2.99 3.67-4.75 7.09-1.8 3.42-4.07 7.6-5.83 13.21-2.02 5.58-4.25 11.88-5.3 19.87-0.97 7.96-1.22 16.74-0.61 27.18-3.02 1.48-6.37 2.27-10.58 2.52-4.25 0.26-8.82-0.18-14.26-1.15 0.11-5.22 0.58-9.43 1.69-13.21 1.05-3.71 2.42-5.22 4.65-9 2.05-4 5.65-10.73 8.03-14.36 2.44-3.64 4.24-5.76 5.94-7.49 1.4-1.8 3.13-2.38 2.84-3.28-0.47-1.01-3.38-1.19-4.86-2.34-1.44-1.26-2.38-4.03-3.92-4.86-1.84-0.9-4.11-0.97-6.12-0.21-1.98 0.72-3.82 2.26-5.51 4.64z" fill-rule="evenodd" stroke="#000" stroke-linecap="round" stroke-miterlimit="10" stroke-width=".036" fill="#fff"/>
  <path id="path139" stroke-linejoin="round" d="m94.689 216.78c-7.524-0.72-15.156-1.04-23.436-1.11-8.244-0.15-19.26 0.11-25.848 0.75-6.768 0.65-11.268 1.55-14.04 2.99-0.612-0.68-1.008-1.11-1.584-1.29-0.576-0.26-1.116-0.26-1.62 0l-0.288-3.78c2.088 0.25 3.528 0 4.86-0.76 1.224-0.86 3.6-2.56 2.412-3.96-1.296-1.48-6.84-4.39-9.972-4.72-3.276-0.39-8.172 1.26-9.144 2.63-1.008 1.37 0.072 3.1 3.24 5.47-0.756 0.98-1.116 1.98-1.08 3.03 0.036 0.97 0.432 1.98 1.332 3.02-3.492 0.07-6.048 2.63-7.812 7.52-1.728 4.97-2.304 10.84-2.7 21.89-0.576 10.98-0.756 25.31-0.54 43.56-3.888 1.77-6.264 4.86-7.524 9.44-1.296 4.53-1.26 12.2 0.252 17.71 1.44 5.36 3.996 11.05 8.64 14.72 4.536 3.67 13.14 6.48 18.864 7.17 5.724 0.57 10.62-0.62 15.084-3.57 0.252 0.36 0.972 0.69 2.16 0.97 1.224 0.29 2.7 0.44 4.824 0.58-0.612 5.44 0.828 11.56 4.86 18.65 3.96 7.09 10.116 19.26 18.612 23.58 8.352 4.14 21.78 5.47 31.249 1.51 9.43-4.14 17.46-12.46 24.77-25.63 11.34 2.01 22.57 3.35 34.52 4.14 11.88 0.68 24.88 0.29 36.36 0.36 11.34-0.04 23 0.18 31.54-0.18 8.31-0.33 14.5-1.15 18.57-2.09-1.55 5.98 0 11.45 4.5 16.42 4.43 4.93 14.58 10.9 22.39 13.21 7.85 2.19 17 2.63 24.23 0.18 7.17-2.63 14.15-9.94 18.33-15.27 4.03-5.4 5.86-10.8 5.65-16.59 5.33-0.43 11.88 0.18 19.94 1.69 8.03 1.55 17.28 3.85 28.05 7.34-1.95-4.21-2.7-7.92-2.7-11.12 0.03-3.31 0.97-5.98 2.95-8.28l-11.85-1.15c4.86-4.14 8.32-8.93 11.06-14.51 2.59-5.76 5.04-14.04 4.57-18.86-0.61-4.79-3.28-7.56-7.56-9.44-4.36-1.98-10.23-2.73-18.04-2.26 1.69-1.84 2.77-5.01 3.24-9.65 0.43-4.72 0.25-10.62-0.54-18.11 3.6-1.98 6.37-5.29 8.61-9.79 2.12-4.68 4.21-12.6 4.31-17.35-0.07-4.86-1.51-8.5-4.03-10.77-2.55-2.19-6.19-3.06-11.05-2.45-1.19-1.65-3.56-2.91-7.27-3.78-3.71-0.9-8.6-1.4-14.83-1.51 2.34-3.99 2.34-7.02 0-9.21-2.45-2.2-7.82-4.29-14.29-3.78-6.63 0.43-16.74 4.82-24.52 6.22-7.85 1.3-17.21 0.65-21.82 1.52-4.64 0.72-6.62 1.72-5.94 3.02-3.52-0.11-13.93-0.14-31.78-0.25-18.04-0.15-42.56-0.22-74.92-0.36-1.73-4.54-3.38-8.14-5.11-10.95-1.77-2.84-3.57-4.75-5.4-5.86 1.8-10.41 3.56-19.08 5.15-26.57 1.51-7.53 2.98-13.32 4.28-17.93-6.88-0.79-12.78-0.47-18 1.37-5.29 1.73-5.87 0.43-13.25 9.18-7.45 8.82-17.57 22.89-30.921 43.05z" fill-rule="evenodd" stroke="#000" stroke-linecap="round" stroke-miterlimit="10" stroke-width=".036"/>
  <path id="path141" stroke-linejoin="round" d="m152.29 165.27c-4.54-0.36-8.39 0.07-12.24 1.29-3.89 1.12-4.83 0.11-10.3 5.87-5.58 5.76-17.42 20.95-22.46 28.48-5.11 7.41-7.669 12.45-7.813 15.66-0.252 0.29 1.183 0.9 4.323 1.69 3.13 0.79 7.84 1.91 14.29 3.2 0.9-4.71 3.09-10.01 6.19-16.02 3.17-6.15 7.85-13.25 12.67-20.01 4.72-6.81 9.65-13.39 15.34-20.16z" fill-rule="evenodd" stroke="#000" stroke-linecap="round" stroke-miterlimit="10" stroke-width=".036" fill="#fff"/>
  <path id="path143" stroke-linejoin="round" d="m124.28 220.71c2.23-0.04 4.25 0.21 5.9 0.75 1.62 0.47 3.03 1.23 4.07 2.27l-10.8 0.36c0.25-1.11 0.54-2.23 0.83-3.38z" fill-rule="evenodd" stroke="#000" stroke-linecap="round" stroke-miterlimit="10" stroke-width=".036" fill="#d0ccc8"/>
  <path id="path145" stroke-linejoin="round" d="m143.94 213.54l-7.82 6.23c-2.12-0.32-4.1-0.57-5.94-0.75-1.98-0.26-3.63-0.29-5.36-0.4 2.41-9.61 5.51-17.82 9.43-25.06 3.78-7.23 12.24-20.12 13.72-18.1 1.4 2.08-0.25 11.95-5.11 30.16-1.95-0.75-3.78 0-5.91 1.88-2.12 1.83-6.08 8.1-6.48 9.61-0.54 1.4 2.34 0.32 3.78-0.76 1.48-1.22 2.99-4.79 4.83-5.83 1.65-1.01 3.45-1.12 5.4-0.18-0.18 1.04-0.36 2.12-0.54 3.2z" fill-rule="evenodd" stroke="#000" stroke-linecap="round" stroke-miterlimit="10" stroke-width=".036" fill="#fff"/>
  <path id="path147" stroke-linejoin="round" d="m269.5 225.42c-0.46-0.75 2.02-1.26 5.66-1.51 3.6-0.32 10 0.07 15.91-0.75 5.79-1.12 13.25-4.11 18.86-5.08 5.55-1.01 10.95-1.48 14.26-0.58 3.17 0.9 5.11 3.96 4.86 5.84-0.43 1.65-1.66 4.1-6.73 4.71-5.3 0.54-16.17-0.97-23.73-0.93-7.56 0.03-16.13 1.58-20.99 1.33-5-0.43-7.7-2.27-8.1-3.03z" fill-rule="evenodd" stroke="#000" stroke-linecap="round" stroke-miterlimit="10" stroke-width=".036" fill="#fff"/>
  <path id="path149" stroke-linejoin="round" d="m96.993 218.4c-7.812-0.14-15.408-0.32-23.184-0.39-7.884-0.18-15.876-0.47-23.148-0.18s-13.788 0.86-19.944 1.87l0.54 8.14c1.62 0.61 3.636 1.69 6.192 3.38 2.556 1.51 6.768 2.63 8.892 6.41 1.98 3.81 2.916 9.03 2.952 16.2 1.332-2.63 4.248-5.04 8.892-7.53 4.716-2.52 12.024-6.15 18.864-7.16 6.732-1.01 15.876-0.43 21.024 0.76 4.967 1.11 9.647 5.22 8.607 5.65-1.23 0.29-9.723-3.57-15.627-3.78-6.048-0.36-13.068-0.51-19.656 2.09-6.66 2.48-13.824 7.45-19.404 13.39-5.58 5.97-10.908 16.2-13.752 22.07-2.916 5.72-4.032 9.75-3.492 12.24 3.492-0.26 6.408 0.1 8.892 1.22 2.448 1.08 4.428 2.52 5.94 5.29 1.44 2.7 2.556 5.91 2.952 10.73 0.252 4.75 0.216 13.21-0.792 17.75-0.972 4.43-2.736 7.27-5.148 8.67 1.26 1.26 2.88 1.7 4.86 1.3 1.944-0.47 5.112-0.29 6.732-3.74 1.44-3.64 1.836-10.7 2.448-17 0.54-6.37-0.54-14.36 1.332-20.37 1.836-6.09 4.968-11.85 9.972-15.63 5.076-3.92 14.04-7.3 19.944-7.38 5.76 0.04 11.299 2.7 14.539 7.17 3.06 4.35 2.78 10.44 4.58 18.68 1.76 8.1 4.75 23.01 6.19 29.99 1.26 6.88 0.5 7.78 1.91 11.59 1.44 3.78 2.34 8.21 6.44 10.95 4 2.52 6.05 3.74 17.53 5.07 11.49 1.37 35.53 2.52 50.91 3.03 15.26 0.25 29.95-0.26 40.17-0.94 10.05-0.65 14.62-0.72 19.95-2.84 5.22-2.34 8.2-5.44 11.3-10.55 2.92-5.22 4.46-12.71 6.73-19.98 2.2-7.49 4.4-16.92 7.02-23.58 2.6-6.63 4.21-12.06 8.61-15.48 4.32-3.42 12.7-6.48 17.53-4.9 4.79 1.55 8.93 8.53 11.3 14.15 2.24 5.47 1.98 11.95 2.7 18.47 0.72 6.37 0.98 14.4 1.88 19.62 0.93 5.07 1.18 8.53 3.52 10.94 2.31 2.16 8.64 3.06 9.69 2.85 0.79-0.36-3.13-1.91-4.58-3.96-1.58-1.95-3.52-3.42-4.03-7.92-0.5-4.68-1.08-14.62 1.34-19.8 2.34-5.22 9.14-9.11 12.92-11.53 3.67-2.52 7.06-1.87 9.18-3.6 2.05-1.8 2.34-2.05 2.95-7.16 0.51-5.29 0.18-15.98 0.29-23.76 0.07-7.88 0.4-16.67 0-22.61-0.5-5.97 0.36-9.68-3.24-12.63-3.85-3.03-10.04-4.68-19.15-5.12-1.62 1.55-4.36 2.27-8.35 2.45-4.11 0.07-9.51-1.69-15.63-1.69-6.19-0.11-13.75 1.84-20.73 1.51-7.02-0.36-13.93-1.54-21.03-3.56-29.01-0.32-54.46-0.47-77.61-0.58-23.22-0.14-43.85-0.14-60.09 0-16.3-0.03-25.05 0.26-36.357 0.47-11.34 0.22-22.824 0.65-30.708 1.15-7.848 0.44-14.4 1.98-16.2 1.88-1.98-0.18-1.8-1.66 4.86-2.63 6.696-1.08 23.328-2.41 34.776-3.03 11.376-0.64 22.109-0.64 32.869-0.39-6.27-1.91-12.57-3.82-18.867-5.73z" fill-rule="evenodd" stroke="#000" stroke-linecap="round" stroke-miterlimit="10" stroke-width=".036" fill="#fff"/>
  <path id="path151" stroke-linejoin="round" d="m35.001 275.61c-0.54 2.66-1.26 5.25-1.872 7.92-0.684 2.55-1.404 5.18-2.16 7.74l-4.032-0.18c0.288-1.59 0.468-3.46 0.252-5.48-0.144-2.08-0.684-4.46-1.332-6.98 0.612 1.15 1.692 1.37 3.24 0.94 1.584-0.58 3.42-1.8 5.904-3.96z" fill-rule="evenodd" stroke="#000" stroke-linecap="round" stroke-miterlimit="10" stroke-width=".036" fill="#fff"/>
  <path id="path153" stroke-linejoin="round" d="m18.837 290.51l5.148 0.18c0.324-2.59 0.504-5.25 0.54-7.7-0.036-2.49-0.216-5.04-0.54-7.38-0.756 0.21-1.656-0.04-2.7-0.76-1.044-0.83-2.268-1.98-3.528-3.74-0.756 2.3-0.972 4.97-0.792 8.28 0.18 3.2 0.756 6.91 1.872 11.12z" fill-rule="evenodd" stroke="#000" stroke-linecap="round" stroke-miterlimit="10" stroke-width=".036" fill="#fff"/>
  <path id="path155" stroke-linejoin="round" d="m32.589 275.07c3.708-2.56 6.624-5.83 8.892-9.83 2.304-4.1 4.284-9.72 4.572-14.33 0.036-4.64-1.44-10.26-3.744-13.39-2.304-3.31-5.58-5.22-9.972-6.01 1.62 6.23 2.556 12.06 2.952 17.89 0.36 5.8-0.468 12.17-0.828 16.6-0.468 4.24-1.044 7.27-1.872 9.07z" fill-rule="evenodd" stroke="#000" stroke-linecap="round" stroke-miterlimit="10" stroke-width=".036" fill="#fff"/>
  <path id="path157" stroke-linejoin="round" d="m22.905 229.42c-0.144 2.05 1.764 6.3 2.412 12.06 0.54 5.72 0.756 16.45 1.08 21.89 0.252 5.36 0.288 7.63 0.54 10.01 0.108 2.3-0.036 3.63 0.54 3.56 0.648-0.25 1.908 0.07 2.952-4.72 0.864-5 2.376-17.74 2.448-24.33-0.108-6.66-0.972-11.56-2.16-14.69-1.224-3.24-3.312-3.31-4.608-3.96-1.368-0.76-3.132-1.8-3.204 0.18z" fill-rule="evenodd" stroke="#000" stroke-linecap="round" stroke-miterlimit="10" stroke-width=".036" fill="#fff"/>
  <path id="path159" stroke-linejoin="round" d="m20.997 231.29c-1.368-0.11-3.276 6.48-4.32 11.7-1.08 5.19-2.772 13.65-1.872 18.87 0.9 5.07 5.364 10.4 7.02 11.52 1.512 1.08 1.728-0.65 2.16-5.48 0.288-5.11 0.468-18.18 0-24.33-0.576-6.23-1.8-12.13-2.988-12.28z" fill-rule="evenodd" stroke="#000" stroke-linecap="round" stroke-miterlimit="10" stroke-width=".036" fill="#fff"/>
  <path id="path161" stroke-linejoin="round" d="m21.285 219.99l0.252 7.16c0.648-0.36 1.692-0.68 2.988-0.57 1.26 0 2.916 0.25 4.824 0.75 0.576-3.35 0.216-5.51-1.08-6.77-1.44-1.18-3.636-1.47-6.984-0.57z" fill-rule="evenodd" stroke="#000" stroke-linecap="round" stroke-miterlimit="10" stroke-width=".036" fill="#fff"/>
  <path id="path163" stroke-linejoin="round" d="m21.537 213.76c-0.576 0.83-0.756 1.58-0.54 2.27 0.18 0.61 1.224 1.37 1.62 1.69 0.252 0.25 0.252 0.25 0 0h3.78l-0.54-3.38c-1.44-0.18-2.88-0.36-4.32-0.58z" fill-rule="evenodd" stroke="#000" stroke-linecap="round" stroke-miterlimit="10" stroke-width=".036" fill="#fff"/>
  <path id="path165" stroke-linejoin="round" d="m22.365 211.71c1.476 0.47 5.148 0.47 6.444 0 1.26-0.54 2.088-2.2 1.08-3.03-1.152-0.93-6.156-2.34-7.812-2.26-1.728 0-2.484 1.51-2.412 2.44 0 0.87 1.08 2.27 2.7 2.85z" fill-rule="evenodd" stroke="#000" stroke-linecap="round" stroke-miterlimit="10" stroke-width=".036" fill="#fff"/>
  <path id="path167" stroke-linejoin="round" d="m19.809 222.83l-2.232-1.58c-1.296 0.57-2.232 1.22-2.664 1.8-0.54 0.54-0.612 1.15-0.216 1.69h4.5c0.18-0.61 0.396-1.26 0.612-1.91z" fill-rule="evenodd" stroke="#000" stroke-linecap="round" stroke-miterlimit="10" stroke-width=".036" fill="#fff"/>
  <path id="path169" stroke-linejoin="round" d="m11.349 235.18c0.036 0.43 0.036 0.9 0 1.55-0.036 0.54-0.108 1.26-0.216 2.01 2.412-0.03 4.032-0.25 5.004-0.64 0.828-0.51 1.404-1.62 0.612-2.09-0.9-0.58-2.556-0.72-5.4-0.83z" fill-rule="evenodd" stroke="#000" stroke-linecap="round" stroke-miterlimit="10" stroke-width=".036" fill="#fff"/>
  <path id="path171" stroke-linejoin="round" d="m11.061 240.15c-0.108 0.28-0.18 0.9-0.216 1.44-0.072 0.64-0.108 1.22-0.108 2.12l3.276 0.29c0.72-0.79 1.152-1.55 1.296-2.13 0.036-0.68-0.18-1.18-0.792-1.65-1.152 0-2.304-0.04-3.456-0.07z" fill-rule="evenodd" stroke="#000" stroke-linecap="round" stroke-miterlimit="10" stroke-width=".036" fill="#fff"/>
  <path id="path173" stroke-linejoin="round" d="m10.773 246.74c0 0.32-0.18 0.79-0.144 1.4-0.072 0.57-0.108 1.29-0.108 2.16l2.7 0.25c0.612-0.79 0.972-1.55 1.08-2.12 0.036-0.69-0.144-1.23-0.684-1.62-0.936 0-1.872-0.04-2.844-0.07z" fill-rule="evenodd" stroke="#000" stroke-linecap="round" stroke-miterlimit="10" stroke-width=".036" fill="#fff"/>
  <path id="path175" stroke-linejoin="round" d="m10.449 252.14c-0.108 0.28-0.108 0.9-0.144 1.44-0.036 0.64-0.108 1.22-0.072 2.12l2.376 0.29c0.576-0.79 0.9-1.55 0.972-2.13 0-0.68-0.108-1.18-0.612-1.65-0.828 0-1.656-0.04-2.52-0.07z" fill-rule="evenodd" stroke="#000" stroke-linecap="round" stroke-miterlimit="10" stroke-width=".036" fill="#fff"/>
  <path id="path177" stroke-linejoin="round" d="m11.961 231.18c0.036 0.44 0.036 0.9 0 1.55-0.036 0.54-0.108 1.26-0.216 2.02 2.412-0.04 4.032-0.25 5.004-0.65 0.828-0.5 1.404-1.62 0.612-2.09-0.9-0.57-2.556-0.72-5.4-0.83z" fill-rule="evenodd" stroke="#000" stroke-linecap="round" stroke-miterlimit="10" stroke-width=".036" fill="#fff"/>
  <path id="path179" stroke-linejoin="round" d="m12.969 226.18c0.036 0.4 0.036 0.97 0 1.58-0.036 0.58-0.144 1.19-0.18 1.98 2.448-0.03 3.924-0.25 4.968-0.64 0.828-0.51 1.404-1.66 0.612-2.06-0.9-0.54-2.556-0.82-5.4-0.86z" fill-rule="evenodd" stroke="#000" stroke-linecap="round" stroke-miterlimit="10" stroke-width=".036" fill="#fff"/>
  <path id="path181" stroke-linejoin="round" d="m9.873 257.07c-0.072 0.32-0.18 0.79-0.18 1.4-0.036 0.58-0.108 1.3-0.072 2.16l2.664 0.29c0.612-0.87 0.972-1.59 1.08-2.16 0.036-0.69-0.18-1.23-0.648-1.62-0.936 0-1.872-0.04-2.844-0.07z" fill-rule="evenodd" stroke="#000" stroke-linecap="round" stroke-miterlimit="10" stroke-width=".036" fill="#fff"/>
  <path id="path183" stroke-linejoin="round" d="m9.909 262.11c-0.072 0.29-0.18 0.9-0.18 1.44-0.072 0.64-0.108 1.22-0.108 2.12l3.24 0.29c0.792-0.79 1.188-1.55 1.332-2.13 0.072-0.68-0.252-1.18-0.828-1.65-1.152 0-2.304-0.04-3.456-0.07z" fill-rule="evenodd" stroke="#000" stroke-linecap="round" stroke-miterlimit="10" stroke-width=".036" fill="#fff"/>
  <path id="path185" stroke-linejoin="round" d="m9.873 267.26c-0.144 0.28-0.18 0.9-0.252 1.44-0.072 0.64-0.108 1.22-0.108 2.12l3.744 0.29c0.936-0.79 1.404-1.55 1.548-2.13 0.108-0.68-0.252-1.18-0.936-1.65-1.332 0-2.664-0.04-3.996-0.07z" fill-rule="evenodd" stroke="#000" stroke-linecap="round" stroke-miterlimit="10" stroke-width=".036" fill="#fff"/>
  <path id="path187" stroke-linejoin="round" d="m9.981 273.23c-0.144 0.29-0.18 0.9-0.252 1.44-0.072 0.65-0.108 1.23-0.108 2.12l3.744 0.29c0.936-0.79 1.404-1.55 1.548-2.12 0.108-0.69-0.252-1.19-0.936-1.66-1.332 0-2.664-0.03-3.996-0.07z" fill-rule="evenodd" stroke="#000" stroke-linecap="round" stroke-miterlimit="10" stroke-width=".036" fill="#fff"/>
  <path id="path189" stroke-linejoin="round" d="m9.765 278.67c-0.144 0.29-0.18 0.9-0.252 1.44-0.072 0.64-0.108 1.22-0.108 2.12l3.744 0.29c0.936-0.79 1.404-1.55 1.548-2.12 0.108-0.69-0.252-1.19-0.936-1.66-1.332 0-2.664-0.04-3.996-0.07z" fill-rule="evenodd" stroke="#000" stroke-linecap="round" stroke-miterlimit="10" stroke-width=".036" fill="#fff"/>
  <path id="path191" stroke-linejoin="round" d="m10.485 284.14c-0.144 0.36-0.18 0.79-0.252 1.44-0.072 0.58-0.108 1.3-0.108 2.16l3.744 0.25c0.936-0.79 1.404-1.55 1.548-2.12 0.108-0.69-0.252-1.23-0.936-1.62-1.332-0.04-2.664-0.07-3.996-0.11z" fill-rule="evenodd" stroke="#000" stroke-linecap="round" stroke-miterlimit="10" stroke-width=".036" fill="#fff"/>
  <path id="path193" stroke-linejoin="round" d="m13.869 292.96c-4.464 0.4-4.824 1.51-6.48 4.18-1.8 2.52-4.392 5.9-3.744 11.66s2.232 18.11 7.524 23c5.148 4.76 17.496 6.48 23.436 5.87 5.796-0.65 9.288-3.99 11.592-9.61 2.232-5.83 3.888-18.86 1.908-24.52-2.196-5.68-8.532-7.52-14.292-9.25-5.796-1.8-15.588-1.87-19.944-1.33z" fill-rule="evenodd" stroke="#000" stroke-linecap="round" stroke-miterlimit="10" stroke-width=".036" fill="#fff"/>
  <path id="path195" stroke-linejoin="round" d="m338.8 307.72c-2.66 1.66-4.86 3.56-6.44 6.98-1.66 3.5-3.06 9.04-2.95 13.58-0.04 4.35 0.25 9.82 3.49 12.81 3.31 2.92 10.4 4.86 15.88 4.72 5.29-0.26 11.34-1.05 15.66-5.84 4.21-5.07 8.74-17.78 9.43-23.39 0.43-5.55-1.55-8.03-5.94-9.98-4.54-2.09-15.3-2.52-20.23-2.27-4.93 0.26-6.37 1.48-8.9 3.39z" fill-rule="evenodd" stroke="#000" stroke-linecap="round" stroke-miterlimit="10" stroke-width=".036" fill="#fff"/>
  <path id="path197" stroke-linejoin="round" d="m328.87 348.65c8.82 0.43 16.49 0.58 23.15 0.58 6.58-0.07 12.02-0.4 16.45-0.98-1.37 3.61-1.91 6.52-1.62 8.9 0.25 2.3 1.33 3.99 3.24 5.07-5.91-2.05-12.24-3.74-19.41-5.07-7.23-1.37-14.9-2.38-23.43-3.03 0.54-1.8 1.08-3.63 1.62-5.47z" fill-rule="evenodd" stroke="#000" stroke-linecap="round" stroke-miterlimit="10" stroke-width=".036" fill="#fff"/>
  <path id="path199" stroke-linejoin="round" d="m391.62 336.95c-3.71-0.14-6.45 0.29-8.36 1.69-2.01 1.3-3.45 4.4-2.95 6.23 0.54 1.77 2.56 3.17 6.19 4.36-5.22 6.19-6.84 10.47-4.86 12.99 1.95 2.49 7.38 3.06 16.46 1.87 5.68 4.5 9.9 6.02 12.63 4.94 2.74-1.19 3.78-5.15 3.53-11.88 4.68-1.8 7.78-4.03 9.68-6.99 1.84-3.02 2.52-8.96 1.37-10.58-1.29-1.66-4.21-1.4-8.89 0.76 2.74-2.85 4.21-5.66 4.82-8.28 0.4-2.7-0.28-6.63-1.62-7.74-1.33-1.16-3.34-0.8-6.19 0.93-2.01-1.44-4.21-1.87-6.19-1.29-2.02 0.57-4.21 1.94-6.19 4.5-3.85-1.91-6.95-2.6-9.43-2.06-2.6 0.54-5.37 3.21-5.4 5.08 0 1.8 1.8 3.53 5.4 5.47z" fill-rule="evenodd" stroke="#000" stroke-linecap="round" stroke-miterlimit="10" stroke-width=".036"/>
  <path id="path201" stroke-linejoin="round" d="m396.48 338.82c-4.76-0.82-8.21-0.75-10.52 0.22-2.41 1.04-3.96 3.56-3.24 5.47 0.76 1.73 3.32 3.31 7.82 4.9-5.4 5.54-7.24 9.32-5.66 11.48 1.59 2.16 6.7 2.41 15.34 1.15 4.75 3.86 8.17 5.04 10.26 3.96 2.05-1.19 2.77-4.79 2.16-10.94 3.96-1.69 6.7-3.53 8.36-5.65 1.54-2.23 2.77-5.76 1.33-6.99-1.55-1.26-4.83-1.33-10.23-0.36 2.09-1.47 3.57-3.38 4.57-5.86 0.87-2.49 1.73-7.71 1.08-8.86-0.68-1.26-2.34-0.76-5.11 1.51-0.83-1.83-1.87-2.48-3.53-2.09-1.65 0.47-3.67 1.8-6.19 4.54-4.46-2.7-7.74-3.78-9.97-3.78-2.31 0.11-3.85 2.09-3.24 4.14 0.61 1.87 2.77 4.21 6.77 7.16z" fill-rule="evenodd" stroke="#000" stroke-linecap="round" stroke-miterlimit="10" stroke-width=".036" fill="#fff"/>
  <path id="path203" stroke-linejoin="round" d="m54.801 338.75c-0.576 1.41-0.108 4.47 1.548 9.33 1.476 4.82 3.384 13.6 8.1 19.4 4.788 5.65 12.744 12.64 20.376 14.44 7.632 1.58 17.205-0.08 24.555-4.4 7.05-4.39 13.06-11.59 18.03-21.74-5.4-3.02-9.18-6.95-11.48-11.92-2.27-5.11-1.3-10.15-2.38-17.89-1.33-7.74-3.02-20.56-4.93-28.15-1.94-7.7-2.7-13.93-6.3-17.57-3.779-3.6-10.259-4.93-15.119-4.39-4.86 0.36-9.684 3.13-13.356 6.77-3.744 3.56-7.164 8.03-8.856 14.65-1.764 6.59-1.404 18.65-1.836 24.66-0.612 5.8-0.216 7.81-1.584 10.62-1.476 2.81-3.6 4.82-6.768 6.19z" fill-rule="evenodd" stroke="#000" stroke-linecap="round" stroke-miterlimit="10" stroke-width=".036" fill="#fff"/>
  <path id="path205" stroke-linejoin="round" d="m81.945 322.66c-0.576 3.64-0.432 3.71 0.288 6.59 0.648 2.81 0.936 8.17 3.924 10.26 2.952 2.05 9.684 3.49 13.824 1.8 4.069-1.84 9.219-7.06 10.439-12.6 1.04-5.65-0.72-16.06-3.64-20.67-2.98-4.71-9.967-6.8-13.603-6.94-3.744-0.11-6.156 2.52-8.064 6.22-1.98 3.57-2.664 11.6-3.168 15.34z" fill-rule="evenodd" stroke="#000" stroke-linecap="round" stroke-miterlimit="10" stroke-width=".036"/>
  <path id="path207" stroke-linejoin="round" d="m84.285 322.62c-0.504 3.32-0.432 3.32 0.216 5.98 0.576 2.52 0.936 7.6 3.564 9.25 2.592 1.55 8.46 1.95 11.916 0.36 3.379-1.76 7.199-5.25 8.099-10.04 0.65-4.9-1.4-14.29-3.67-18.47-2.38-4.28-7.093-6.48-9.973-6.59-3.06-0.14-5.544 2.2-7.308 5.62-1.728 3.17-2.448 10.58-2.844 13.89z" fill-rule="evenodd" stroke="#000" stroke-linecap="round" stroke-miterlimit="10" stroke-width=".036" fill="#fff"/>
  <path id="path209" stroke-linejoin="round" d="m254.56 358.7c-0.93 0.46-1.08 2.05-0.28 4.75 0.57 2.63 2.05 7.92 4.71 11.16 2.77 3.13 7.2 6.05 11.74 8.21 4.39 2.15 9 4.39 14.65 4.75 5.65 0.25 13.03 0.07 18.79-2.92 5.65-3.2 11.41-9.07 14.91-15.37 3.34-6.3 5.04-13.57 5.22-22.1-2.56-0.76-4.25-3.03-5.51-6.95-1.26-4.07-1.44-10.91-1.8-16.63-0.4-5.76-0.11-11.88-0.79-17.39-0.8-5.58-1.88-11.88-3.93-15.7-2.27-3.96-5.51-6.59-8.89-7.49-3.38-0.86-7.81 0.18-10.94 2.16-3.17 1.84-5.19 3.24-7.85 8.79-2.77 5.4-5.98 16.23-8.1 23.76-2.13 7.45-2.31 14.72-4.72 20.84-2.59 5.94-7.56 11.34-10.44 14.8-2.88 3.38-5.18 5.11-6.77 5.33z" fill-rule="evenodd" stroke="#000" stroke-linecap="round" stroke-miterlimit="10" stroke-width=".036" fill="#fff"/>
  <path id="path211" stroke-linejoin="round" d="m279.19 324.68c-0.54 3.63-0.51 3.7 0.25 6.58 0.65 2.85 0.94 8.1 3.92 10.23 2.96 1.98 9.69 3.56 13.83 1.83 4.07-1.83 9.22-7.05 10.44-12.6 1.08-5.65-0.83-16.05-3.64-20.66-3.02-4.72-9.86-6.8-13.57-6.95-3.71-0.11-6.23 2.52-8.1 6.23-1.94 3.56-2.66 11.59-3.13 15.34z" fill-rule="evenodd" stroke="#000" stroke-linecap="round" stroke-miterlimit="10" stroke-width=".036"/>
  <path id="path213" stroke-linejoin="round" d="m281.49 324.64c-0.5 3.31-0.43 3.35 0.22 5.94 0.57 2.52 0.93 7.56 3.56 9.29 2.59 1.55 8.46 1.94 11.92 0.36 3.38-1.77 7.2-5.26 8.1-10.05 0.75-4.89-1.48-14.29-3.64-18.47-2.37-4.28-7.05-6.47-10.01-6.58-2.98-0.15-5.65 2.19-7.3 5.61-1.73 3.17-2.45 10.59-2.85 13.9z" fill-rule="evenodd" stroke="#000" stroke-linecap="round" stroke-miterlimit="10" stroke-width=".036" fill="#fff"/>
  <path id="path215" stroke-linejoin="round" d="m144.98 194c-1.76-0.58-3.2-0.62-4.72-0.51-1.62 0.07-3.09 0.04-4.03 1.44-0.9 1.41-1.29 3.64-1.19 6.84-0.93-0.18-1.54 0.15-2.12 0.97-0.68 0.76-1.26 2.34-1.19 3.78 0.11 1.44 0.61 2.81 1.66 4.5-2.05 0.04-3.03 0.8-3.31 2.13-0.29 1.26-0.44 4.89 1.9 5.9 2.31 1.01 6.2 1.08 11.81 0.22 0.11-3.32 0.33-6.41 0.51-9.44 0.21-3.16 0.39-6.4 0.68-8.74 0.14-2.34 0.4-4.04 0.47-5.22 0.03-1.23-0.22-1.8-0.47-1.87z" fill-rule="evenodd" stroke="#000" stroke-linecap="round" stroke-miterlimit="10" stroke-width=".036"/>
  <path id="path217" stroke-linejoin="round" d="m133.35 213.33c0.9 0.39 2.2 2.41 3.75 2.84 1.44 0.33 3.85-0.93 4.75-0.57 0.79 0.25 1.11 1.94 0 2.44-1.23 0.4-5.33 0.54-7.06 0.29-1.94-0.36-3.13-1.55-3.71-2.3-0.54-0.83 0.11-2.2 0.58-2.56 0.22-0.5 0.83-0.65 1.69-0.14z" fill-rule="evenodd" stroke="#000" stroke-linecap="round" stroke-miterlimit="10" stroke-width=".036" fill="#fff"/>
  <path id="path219" stroke-linejoin="round" d="m147.14 197.24c1.15-0.08 2.16 0.35 3.17 1.29 0.93 0.83 2.12 2.13 2.73 4.18 0.54 2.05 0.69 4.68 0.58 8.03l5.29 3.45c0.79-2.63 1.66-5.36 2.74-8.64 0.97-3.35 2.27-7.77 3.6-10.76 1.29-3.1 2.91-6.23 4.57-7.31 1.58-1.08 3.31-0.79 5.18 0.86 5.87-3.45 10.91-7.38 15.52-11.63 4.61-4.32 8.35-8.96 11.77-14.07l2.16-1.73c-0.25-0.68 0.33-4.32 1.87-11.05 1.52-6.81 3.86-16.53 7.17-29.45-2.63-1.15-4.39-2.77-5.58-5-1.19-2.38-2.13-7.02-1.44-8.5 0.61-1.51 3.67-1.22 5.29-0.25 1.48 0.97 2.77 2.7 3.89 5.72-0.4-4.32-0.25-8.71 0.29-13.174 0.61-4.572 1.44-10.836 3.02-13.788 1.4-3.132 4.46-6.228 5.44-4.14 0.86 2.196 0.86 7.74-0.15 17.064 2.2-5.436 4.21-9.072 6.05-10.908 1.76-1.836 4.21-1.512 4.72-0.144 0.32 1.224-0.72 3.816-1.88 7.632-1.11 3.708-2.59 8.528-4.57 14.618 2.7-4.86 5.19-8.07 7.17-9.614 1.98-1.656 4.06-0.828 4.89 0.144 0.69 0.9 0.87 3.24-0.14 5.47-1.08 2.13-2.92 4.61-5.91 7.45 3.03-1.4 5.37-1.83 7.17-1.58 1.87 0.29 3.2 1.91 3.45 3.31 0 1.3-1.33 2.92-3.16 4.43-2.06 1.33-5.8 1.48-8.32 3.89-2.52 2.45-4.07 4.64-6.88 10.47-2.95 5.73-8.56 17.46-10.62 23.55-2.16 5.94-2.88 10.01-2.16 12.2 1.77-0.11 2.63 0.47 2.74 1.87 0.07 1.34-1.3 3.21-2.16 6.3-0.97 2.99-1.8 6.27-3.31 11.92-1.66 5.65-4.32 15.73-5.91 21.92-1.54 6.16-2.62 10.95-3.24 14.76h-43.7c-2.05 0.29-4.07-0.25-5.65-1.62-1.59-1.44-3.13-4.68-4.36-6.66-1.37-2.05-2.81-3.96-4.03-5.58 0.9-4.96 1.8-9.93 2.7-14.93z" fill-rule="evenodd" stroke="#000" stroke-linecap="round" stroke-miterlimit="10" stroke-width=".036"/>
  <path id="path221" stroke-linejoin="round" d="m138.25 195.51c-0.94 0.29-1.05 1.76-1.15 3.31-0.26 1.55-0.9 4.28 0 5.72 0.79 1.23 3.85 3.42 4.89 2.16 0.87-1.44 1.48-8.02 0.87-9.9-0.76-1.9-3.64-1.69-4.61-1.29z" fill-rule="evenodd" stroke="#000" stroke-linecap="round" stroke-miterlimit="10" stroke-width=".036" fill="#fff"/>
  <path id="path223" stroke-linejoin="round" d="m135.22 204.4c0.8 0.54 1.34 2.34 2.45 3.46 1.08 0.97 3.35 1.51 3.75 2.44 0.28 0.9-0.94 3.03-2.02 2.88-1.33-0.28-4.03-3.02-5.18-4.32-1.23-1.47-1.7-3.09-1.55-3.89 0.14-0.79 1.69-1.11 2.55-0.57z" fill-rule="evenodd" stroke="#000" stroke-linecap="round" stroke-miterlimit="10" stroke-width=".036" fill="#fff"/>
  <path id="path225" stroke-linejoin="round" d="m149.34 199.97c0.28-0.54 1.18 0.83 1.72 2.02 0.4 1.08 1.34 3.17 1.3 4.71-0.18 1.55-1.08 3.32-1.73 4.04-0.79 0.54-1.98 0.39-2.3-0.58-0.36-1.12 0.25-3.49 0.43-5.18 0.07-1.84 0.22-4.43 0.58-5.01z" fill-rule="evenodd" stroke="#000" stroke-linecap="round" stroke-miterlimit="10" stroke-width=".036" fill="#fff"/>
  <path id="path227" stroke-linejoin="round" d="m153.22 213.04c1.44 0.58 2.49 1.19 3.28 1.84 0.72 0.54 1.15 1.29 1.3 1.87-0.29 2.91-0.58 5.07-1.01 6.19-0.47 1.08-0.94 1.4-1.55 0.68-0.65 0.54-1.22 0.36-1.87-0.54-0.65-1-1.37-2.55-2.02-5.04 0.25-0.57 0.54-1.15 0.87-2.01 0.32-0.9 0.61-1.8 1-2.99z" fill-rule="evenodd" stroke="#000" stroke-linecap="round" stroke-miterlimit="10" stroke-width=".036" fill="#fff"/>
  <path id="path229" stroke-linejoin="round" d="m158.7 223.8c0.1-2.19 0.72-5.25 1.83-9.46 0.97-4.22 3.21-11.38 4.61-15.52 1.44-4.21 2.59-7.74 3.85-9.32 1.08-1.66 2.09-0.69 3.17-0.58 0.97 0.04 2.16 0.32 3.17 0.86 0.18 0.22 1.94-0.75 5.29-3.45 3.31-2.77 10.98-8.79 14.65-12.35 3.67-3.42 5.83-6.37 7.02-8.46 0.51 1.33 1.8 2.66 3.89 3.6 2.09 0.79 7.31 1.04 8.46 2.3 0.94 1.3-1.4 3.03-2.3 5.87-0.87 2.77-1.23 2.99-3.03 10.77-1.94 7.77-4.79 19.33-8.53 35.35-7.52 0.18-14.62 0.36-21.67 0.39-7.06 0.04-13.86 0.04-20.41 0z" fill-rule="evenodd" stroke="#000" stroke-linecap="round" stroke-miterlimit="10" stroke-width=".036" fill="#fff"/>
  <path id="path231" stroke-linejoin="round" d="m207.19 199.11c-1.59 1.04-2.92 1.19-3.6 0.43-0.72-0.83-1.19-2.41-1.01-5.04-2.48-0.68-3.49-1.73-3.17-3.13 0.25-1.51 1.98-3.24 5.04-5.47-1.76-2.2-2.34-4.11-2.01-5.58 0.36-1.73 2.59-3.53 4.17-3.46 1.55 0.18 3.17 1.62 5.01 4.46-1.48 5.91-2.96 11.85-4.43 17.79z" fill-rule="evenodd" stroke="#000" stroke-linecap="round" stroke-miterlimit="10" stroke-width=".036"/>
  <path id="path233" stroke-linejoin="round" d="m207.62 196.66c-1.26 1.19-2.12 1.76-2.74 1.73-0.72-0.15-1.18-1.19-1-2.16 0.1-1.05 0.82-2.23 2.01-3.71-2.3 0.47-3.6 0.32-3.89-0.29-0.32-0.79 0.9-3.06 1.88-3.74 0.82-0.61 1.98-0.76 3.31-0.15-2.05-2.98-3.06-5.18-3.17-6.58-0.07-1.52 1.44-2.56 2.59-2.16 1.01 0.25 2.2 1.58 3.57 3.85-0.83 4.39-1.7 8.78-2.56 13.21z" fill-rule="evenodd" stroke="#000" stroke-linecap="round" stroke-miterlimit="10" stroke-width=".036" fill="#fff"/>
  <path id="path235" stroke-linejoin="round" d="m168.02 162.71c-0.32 5.22-0.18 10.15 0.58 14.8 0.68 4.57 0.72 9.57 3.6 12.78 2.8 3.2 9.1 7.2 13.21 6.15 3.99-1.29 8.13-7.59 10.76-13.21 2.56-5.79 3.21-16.02 4.29-20.37 0.82-4.29 0.46-3.14 1.29-5.01 0.87-2.01 2.81-4.35 3.6-6.33 0.69-2.09 0.83-4.32 0.29-5.58-0.72-1.3-2.84-1.84-3.89-2.02-1.01-0.25-1.73 0.04-2.16 0.72l0.15-2.02c1.62-1.4 3.06-2.26 4.46-3.02 1.33-0.72 2.48-1.19 3.6-1.26l-6.34-0.58c0.76-0.93 1.77-1.8 3.03-2.59 1.19-0.79 2.63-1.51 4.32-2.16-1.23-0.68-2.52-1.11-3.75-1.29-1.36-0.29-2.52-0.29-3.88-0.15 2.55-0.61 4.42-1.19 5.76-1.44 1.29-0.32 2.05-0.47 2.12-0.43-1.94-0.54-3.71-0.83-5.44-0.86-1.76-0.15-3.67 0.18-4.89 0.28-1.3 0.04-2.2 0.04-2.7 0 0.68-0.64 1.87-1.26 3.71-1.54 1.83-0.33 4.14-0.62 7.2-0.58l-5.19-1.01 4.9-1.58-6.48-2.16c-0.65-0.9-1.98-1.62-3.85-2.02-1.91-0.47-4.5-0.61-7.64-0.57-0.68-1.52-2.16-1.95-4.42-1.59-2.42 0.4-6.77 1.87-9.33 3.89-2.48 1.87-4.5 4.86-5.76 7.31-1.44 2.34-2.63 4.64-2.45 6.91 0.11 2.12 1.12 4.18 3.17 6.16-2.12 0.39-3.56 1.44-4.17 2.73-0.69 1.3-0.36 3.71 0.14 5.29 0.43 1.52 1.15 2.67 2.3 3.6-0.03 2.92-0.07 5.84-0.14 8.75z" fill-rule="evenodd" stroke="#000" stroke-linecap="round" stroke-miterlimit="10" stroke-width=".036"/>
  <path id="path237" stroke-linejoin="round" d="m170.18 155.69c-0.29 2.27-0.43 4.03-0.29 5.44 0 1.26-0.03 1.98 0.87 2.59 0.75 0.54 2.05 1.3 4.32 1.01 2.23-0.4 5.94-1.08 9.18-3.03 3.24-2.08 8.06-8.38 9.75-8.74 1.44-0.29 0.33 2.34-0.29 6.62-0.64 4.21-1.94 13.75-3.31 18.22-1.4 4.24-3.17 7.38-5.15 7.59-2.16 0.11-5.07-3.38-7.2-6.44-2.16-3.13-3.92-7.06-5.43-11.92h-3.31c0.21 5.44 0.79 9.94 1.87 13.65 1.04 3.6 2.48 6.37 4.32 8.31 1.65 1.91 3.53 3.06 6.3 3.17 2.84-0.11 7.81-1.12 10.19-3.17 2.23-2.12 1.9-4.68 3.31-9.18 1.4-4.64 3.2-14.15 4.57-18.25 1.22-4.18 2.05-4.43 2.88-6.44 0.79-2.09 1.37-4.47 1.58-5.87 0.04-1.59-0.43-2.59-1-2.88-0.58-0.33-1.44 0.11-2.45 1.15l-2.31-3.17-6.15-0.14c0.14 1.8-0.29 3.24-1.15 4.32-0.9 1.01-2.74 1.76-4.14 2.12-1.55 0.36-3.32 0.54-4.61-0.14-1.33-0.83-2.34-2.31-3.17-4.57h-2.16c0.29 1.76 0.11 3.24-0.54 4.57-0.65 1.26-1.8 2.27-3.31 3.02-0.51 1.26-0.51 2.13 0 2.74 0.43 0.5 1.47 1.11 2.99 0.72 1.36-0.4 4.53-3.03 5.61-3.03 1.08-0.1 1.55 1.23 0.72 2.45-1.11 1.19-4.57 3.78-6.33 4.47-1.73 0.5-2.92-0.4-3.71-1.3-0.9-1.01-1.15-2.45-1.15-4.46-0.44 0.18-0.87 0.36-1.3 0.57z" fill-rule="evenodd" stroke="#000" stroke-linecap="round" stroke-miterlimit="10" stroke-width=".036" fill="#fff"/>
  <path id="path239" stroke-linejoin="round" d="m175.22 167.46c0.11 1.98 0.86 4 2.12 6.45 1.3 2.41 3.82 7.09 5.62 7.77 1.62 0.47 2.92-0.46 4.43-4.32 1.47-3.96 2.91-10.08 4.46-18.79-4.07 3.53-7.41 5.87-10.19 7.45-2.77 1.48-4.96 1.91-6.44 1.44z" fill-rule="evenodd" stroke="#000" stroke-linecap="round" stroke-miterlimit="10" stroke-width=".036" fill="#fff"/>
  <path id="path241" stroke-linejoin="round" d="m172.05 141.18c0.97-0.28 1.66-0.14 2.45 0.15 0.68 0.29 1.3 0.86 1.84 1.73h2.73c-0.18-1.66 0.25-2.81 1.3-3.6 0.97-0.83 3.02-1.12 4.75-1.26 1.58-0.29 3.85-0.47 5 0 1.08 0.46 1.66 1.18 1.73 2.55l4.18-0.14c-1.15-1.15-1.73-1.87-1.73-2.56-0.04-0.72 1.55-0.68 1.44-1.29-0.29-0.8-2.3-1.66-2.59-2.6-0.33-0.97 1.11-2.48 0.72-2.88-0.61-0.39-2.74 0.26-3.75 0.15-1.11-0.29-1.18-1.66-2.3-1.73-1.22-0.18-3.67 1.08-4.43 1.01-0.75-0.22 0.36-1.77-0.14-1.87-0.83-0.18-2.13 0.61-3.75 0.86-1.58 0.14-4.14-0.36-5.29 0.14-1.08 0.47-0.86 1.8-1.58 2.6-1.01 0.57-3.46 0.03-3.6 1.44-0.04 1.51 0.79 3.81 3.02 7.3z" fill-rule="evenodd" stroke="#000" stroke-linecap="round" stroke-miterlimit="10" stroke-width=".036" fill="#fff"/>
  <path id="path243" stroke-linejoin="round" d="m170.04 137.48c1.11-0.36 2.26-0.69 3.45-0.58 1.23 0 3.39 0.29 3.57 0.72 0 0.4-2.02 1.15-3.14 1.58-1.22 0.29-2.52 0.47-3.88 0.4v-2.12z" fill-rule="evenodd" stroke="#000" stroke-linecap="round" stroke-miterlimit="10" stroke-width=".036"/>
  <path id="path245" stroke-linejoin="round" d="m181.95 135.17c0.43-0.54 3.67-0.83 5.29-0.86 1.44-0.04 4.36 0.25 3.89 0.72-0.57 0.39-5.22 1.62-6.73 1.73-1.58 0-2.95-1.23-2.45-1.59z" fill-rule="evenodd" stroke="#000" stroke-linecap="round" stroke-miterlimit="10" stroke-width=".036"/>
  <path id="path247" stroke-linejoin="round" d="m169.75 131.43c0.39 0.11 1.01 0.11 1.44-0.29 0.39-0.43 0.83-1.48 1.44-1.87 0.54-0.4 1.11-0.54 1.87-0.43 0.61-2.16 1.94-4.07 4-5.44 2.01-1.4 4.75-2.56 8.2-3.17-0.64-0.75-1.8-1.04-3.45-0.72-1.69 0.22-4.68 0.94-6.59 2.31-2.02 1.36-4.21 3.88-5.33 5.61-1.15 1.59-1.73 2.92-1.58 4z" fill-rule="evenodd" stroke="#000" stroke-linecap="round" stroke-miterlimit="10" stroke-width=".036" fill="#fff"/>
  <path id="path249" stroke-linejoin="round" d="m176.52 128.84c-0.04-1.48 0.86-2.81 2.84-4 1.91-1.4 5.65-2.88 8.89-3.31 3.17-0.4 6.66 0.03 10.33 1.15-4.46-0.58-8.24-0.29-11.34 0.72-3.16 1.04-5.65 2.81-7.45 5.44h-3.27z" fill-rule="evenodd" stroke="#000" stroke-linecap="round" stroke-miterlimit="10" stroke-width=".036" fill="#fff"/>
  <path id="path251" stroke-linejoin="round" d="m183.1 128.01c0.76-1.12 1.91-1.98 3.6-2.59 1.66-0.65 4.32-1.26 6.45-1.44 2.09-0.29 3.99-0.29 5.87-0.15 1.69 0.07 3.13 0.22 4.32 0.58-1.26 0.43-2.13 0.86-2.74 1.15-0.65 0.29-0.94 0.58-0.86 0.72-1.3 0.04-2.63 0.47-4 1.15-1.4 0.65-2.84 1.69-4.32 2.99-0.86-0.94-1.73-1.51-2.74-1.73-1.11-0.29-2.16 0.33-3.13 0.29-1.01-0.14-1.69-0.47-2.45-0.97z" fill-rule="evenodd" stroke="#000" stroke-linecap="round" stroke-miterlimit="10" stroke-width=".036" fill="#fff"/>
  <path id="path253" stroke-linejoin="round" d="m195.74 130.71c3.1-0.76 4.86-1.05 5.44-0.87 0.46 0.08-1.23 0.83-2.31 1.59-1.19 0.68-2.48 1.55-4.28 2.59-0.07-0.61-0.07-1.19 0.14-1.73 0.22-0.54 0.51-1.11 1.01-1.58z" fill-rule="evenodd" stroke="#000" stroke-linecap="round" stroke-miterlimit="10" stroke-width=".036" fill="#fff"/>
  <path id="path255" stroke-linejoin="round" d="m196.17 134.16c1.55-0.57 3.03-1 4.43-1.15 1.37-0.25 2.66-0.25 3.89 0-1.66 0.69-2.95 1.55-3.75 2.45-0.93 0.9-1.69 2.23-1.29 2.88 0.32 0.54 1.47 0.68 3.45 0.43l-3.6 2.7-2.26-0.72c-0.9-0.93-1.34-1.69-1.3-2.41 0.04-0.68 1.12-1.26 1.3-1.87 0.07-0.72-0.22-1.44-0.87-2.31z" fill-rule="evenodd" stroke="#000" stroke-linecap="round" stroke-miterlimit="10" stroke-width=".036" fill="#fff"/>
  <path id="path257" stroke-linejoin="round" d="m180.66 141.76c-0.58 1.01 0.03 2.63 0.57 3.89 0.47 1.19 1.01 2.52 2.45 3.02 1.4 0.33 4.75 0.69 5.87-0.72 1.01-1.51 1.15-6.69 0.29-8.06-0.98-1.37-3.71-0.54-5.3-0.15-1.58 0.29-3.38 1.01-3.88 2.02z" fill-rule="evenodd" stroke="#000" stroke-linecap="round" stroke-miterlimit="10" stroke-width=".036" fill="#fff"/>
  <path id="path259" stroke-linejoin="round" d="m172.63 143.34c-1.23 0.04-2.7 0.47-3.6 1.16-0.97 0.64-1.69 1.18-1.87 2.44-0.22 1.19-0.08 3.32 0.57 4.43 0.47 1.01 1.48 1.59 2.59 1.59 1.16-0.18 2.96-1.41 4.04-2.31 0.93-0.97 1.51-2.01 1.72-3.13 0.22-1.15 0.08-2.95-0.43-3.6-0.72-0.76-1.87-0.72-3.02-0.58z" fill-rule="evenodd" stroke="#000" stroke-linecap="round" stroke-miterlimit="10" stroke-width=".036" fill="#fff"/>
  <path id="path261" stroke-linejoin="round" d="m188.83 198.82c-0.25-1.69-0.25-2.95 0.29-4.18 0.5-1.18 1.36-2.55 2.59-2.84 1.11-0.32 3.38-0.22 3.89 0.86 0.32 1.05-0.11 2.67-1.59 5.15 1.26-0.61 2.23-0.61 3.31 0.15 1.05 0.72 2.92 2.66 2.7 4.17-0.39 1.41-1.87 2.88-4.71 4.43 0.86 1.55 1.29 2.84 1.15 4.03-0.22 1.15-1.08 2.81-2.02 2.88-0.93-0.07-2.23-1.08-3.74-3.02-0.94 2.09-1.76 3.24-2.88 3.6-1.15 0.25-2.99-0.97-3.56-1.73-0.69-0.97-0.36-2.27 0-3.31 0.28-1.01 1-1.87 2.01-2.59-2.19-1.62-3.63-2.92-4.46-4.29s-0.97-2.84-0.43-3.6c0.57-0.83 2.23-1.44 3.6-1.29 1.26 0.07 2.44 0.5 3.85 1.58z" fill-rule="evenodd" stroke="#000" stroke-linecap="round" stroke-miterlimit="10" stroke-width=".036"/>
  <path id="path263" stroke-linejoin="round" d="m190.12 201.27c-0.07-1.77 0.08-3.35 0.29-4.61 0.22-1.33 0.25-2.84 1.08-3.17 0.69-0.47 3.03-0.36 3.28 0.72 0.21 1.05-0.61 2.92-2.2 5.62 1.48-1.19 2.56-1.51 3.64-1.12 0.97 0.4 2.66 2.31 2.3 3.49-0.5 1.05-1.87 2.02-4.64 2.92 1.04 1.73 1.58 3.1 1.62 4.25-0.11 1.11-0.87 2.52-1.69 2.41-0.83-0.22-1.91-1.48-3.24-3.64-0.72 2.56-1.59 3.96-2.45 4.61-0.97 0.58-2.67-0.68-2.99-1.15-0.43-0.61 0.32-1.51 0.86-2.3 0.54-0.87 1.12-1.73 2.13-2.74-2.45-1.73-4.11-3.13-4.97-4.36-0.9-1.26-0.94-2.41-0.4-3.02 0.47-0.76 1.77-1.44 3.06-1.08 1.19 0.32 2.63 1.33 4.32 3.17z" fill-rule="evenodd" stroke="#000" stroke-linecap="round" stroke-miterlimit="10" stroke-width=".036" fill="#fff"/>
  <path id="path265" stroke-linejoin="round" d="m171.55 206.67c-0.33 1.33-0.94 2.45-1.69 3.2-0.83 0.72-2.13 1.51-3.06 1.41-1.05-0.22-2.85-1.08-2.78-2.06-0.03-0.93 1.12-2.12 3.06-3.56-1.15 0.11-2.05-0.36-2.55-1.26-0.58-0.9-1.51-3.35-0.72-4.28 0.79-1.08 2.52-1.66 5.33-1.88-0.22-1.58 0-2.73 0.5-3.6 0.47-0.93 1.8-1.98 2.59-1.58 0.79 0.36 1.3 1.55 1.91 3.71 1.37-1.41 2.56-2.02 3.56-1.84 1.01 0.11 1.95 1.73 2.24 2.63 0.07 0.79-0.51 1.94-1.16 2.63-0.64 0.57-1.44 1.15-2.52 1.33 1.16 2.02 1.84 3.64 2.06 5 0.21 1.37-0.33 2.42-0.94 2.99-0.76 0.33-2.38 0.25-3.31-0.21-1.01-0.51-1.8-1.34-2.52-2.63z" fill-rule="evenodd" stroke="#000" stroke-linecap="round" stroke-miterlimit="10" stroke-width=".036"/>
  <path id="path267" stroke-linejoin="round" d="m171.58 204.47c-0.64 1.37-1.26 2.56-1.83 3.57-0.69 0.86-1.3 2.05-1.98 2.16-0.79-0.08-2.59-0.8-2.34-1.73 0.25-0.94 1.44-2.13 3.71-3.71-1.55 0.47-2.7 0.21-3.32-0.36-0.68-0.72-1.33-2.85-0.57-3.6 0.65-0.79 2.27-0.94 4.71-0.72-0.28-1.69-0.21-3.13 0.22-3.93 0.4-0.93 1.55-1.83 2.2-1.33 0.57 0.47 1 1.77 1.29 4.03 1.37-1.76 2.59-2.7 3.53-2.81 0.94-0.1 1.8 1.3 2.02 1.98 0 0.47-0.83 0.98-1.52 1.52-0.68 0.43-1.62 0.9-2.66 1.4 1.4 2.16 2.09 3.96 2.45 5.26 0.21 1.29-0.22 2.08-0.76 2.52-0.68 0.39-1.94 0.47-2.81-0.18-0.86-0.79-1.69-2.02-2.34-4.07z" fill-rule="evenodd" stroke="#000" stroke-linecap="round" stroke-miterlimit="10" stroke-width=".036" fill="#fff"/>
  <path id="path269" stroke-linejoin="round" d="m160.32 225.24c-1.8-2.59-2.45-4.68-1.95-6.12 0.43-1.44 2.02-2.37 4.75-2.66 0.15-3.42 0.98-5.04 2.49-5 1.51 0 3.49 1.76 6.33 5.29 1.84-2.92 3.5-4.25 5.12-4.14 1.54 0 3.96 2.52 4.17 4.64 0.15 2.13-1.04 4.61-3.42 7.85-5.83 0.04-11.66 0.07-17.49 0.14z" fill-rule="evenodd" stroke="#000" stroke-linecap="round" stroke-miterlimit="10" stroke-width=".036"/>
  <path id="path271" stroke-linejoin="round" d="m162.33 224.38c-1.65-1.69-2.52-2.84-2.59-3.85-0.18-1.05 0.94-1.87 1.94-1.91 1.01-0.04 2.31 0.54 4.04 1.73-0.94-2.88-1.08-4.57-0.44-5.22 0.62-0.61 3.06 0.39 4 1.51 0.72 1.01 1.12 2.41 0.79 4.36 2.52-3.5 4.43-5.37 5.87-5.91 1.33-0.47 2.66 1.19 2.59 2.88-0.14 1.59-1.19 3.67-3.27 6.41h-12.93z" fill-rule="evenodd" stroke="#000" stroke-linecap="round" stroke-miterlimit="10" stroke-width=".036" fill="#fff"/>
  <path id="path273" stroke-linejoin="round" d="m201.43 215.2c-0.65-1.87-1.66-3.31-2.88-4.61-1.33-1.29-3.57-3.6-4.61-3.02-1.04 0.43-1.62 2.45-1.58 5.9-1.37-1.01-2.56-1.29-3.57-1.01-1.04 0.36-2.73 1.55-2.59 2.74 0.07 1.12 0.94 2.12 2.88 3.56 0.5-0.03 0.5-0.03 0 0-0.65-0.07-2.45-0.25-3.17 0.15-0.72 0.36-1.19 1.26-1.01 2.3 0.15 0.9 0.54 2.23 1.59 3.6h12.63c0.76-3.2 1.52-6.41 2.31-9.61z" fill-rule="evenodd" stroke="#000" stroke-linecap="round" stroke-miterlimit="10" stroke-width=".036"/>
  <path id="path275" stroke-linejoin="round" d="m199.99 215.63l-1.73 7.74-10.33 0.43c-0.58-1.11-0.72-1.98-0.72-2.59 0-0.72-0.04-1.01 0.86-1.29 0.76-0.36 2.09-0.51 4-0.58-2.05-1.12-3.42-2.16-3.71-3.13-0.4-1.08 0.5-2.59 1.44-2.74 0.79-0.14 2.12 0.58 3.71 2.02-0.11-2.31 0.18-3.89 0.72-4.61 0.5-0.72 1.55-0.72 2.59 0.14 0.97 0.83 1.98 2.24 3.17 4.61z" fill-rule="evenodd" stroke="#000" stroke-linecap="round" stroke-miterlimit="10" stroke-width=".036" fill="#fff"/>
  <path id="path277" stroke-linejoin="round" d="m204.09 164.94c0.76 1.01 1.77 1.73 3.03 2.45 1.22 0.58 2.7 1.15 4.42 1.44 0.44-4.43 1.44-9.21 3.32-14.36 1.8-5.29 4.93-11.67 7.45-16.63 2.37-5.08 4.86-10.26 6.91-13.07 1.8-2.88 2.95-2.56 4.86-3.75 1.94-1.33 5.54-2.34 6.91-3.56 1.19-1.26 1.19-3.38 0.58-3.89-0.69-0.65-2.63 0-4.47 0.43-1.94 0.47-6.4 2.81-6.73 2.16-0.36-0.75 3.21-4.68 4.86-6.76 1.51-2.27 4.11-4.97 4.47-6.3 0.25-1.48-0.94-2.38-2.45-1.73-1.55 0.72-4.83 3.56-6.34 5.76-1.62 2.01-2.19 6.01-2.84 6.44-0.72 0.33-1.66-1.62-1.15-4.32 0.46-2.84 2.88-9.18 3.88-12.347 0.9-3.348 1.23-6.156 1.12-7.021-0.29-0.9-1.33-0.18-2.56 1.872-1.26 2.016-3.81 8.786-4.89 10.046-1.15 1.01-1.55-0.15-1.73-3.026-0.36-2.988 0.76-12.024 0.29-14.04-0.58-1.908-2.41-0.36-3.17 2.268-0.79 2.556-1.12 7.74-1.55 12.78-0.54 5.008-0.97 10.328-1.44 16.668-1.44-2.16-2.73-3.89-3.74-5.33-1.05-1.51-1.91-2.84-2.59-3.17-0.9-0.36-2.13-0.07-2.27 1.3-0.22 1.26 0.25 4.57 1.4 6.48 1.05 1.76 2.77 3.24 5.19 4.43-0.47 3.09-1.48 8.31-3.32 15.8-1.8 7.53-4.28 17-7.45 28.98z" fill-rule="evenodd" stroke="#000" stroke-linecap="round" stroke-miterlimit="10" stroke-width=".036" fill="#fff"/>
  <path id="path279" stroke-linejoin="round" d="m219.46 123.47c-0.64 1.37-1.08 3.1-1.44 5.19-0.36 1.98-0.5 4.32-0.57 7.02-1.37-0.36-2.23-1.05-2.45-2.6-0.32-1.62 0.11-4.64 0.86-6.3 0.76-1.62 1.91-2.77 3.6-3.31z" fill-rule="evenodd" stroke="#000" stroke-linecap="round" stroke-miterlimit="10" stroke-width=".036"/>
  <path id="path281" stroke-linejoin="round" d="m436.69 318.84c-4.97-1.51-7.02-3.38-6.59-5.76 0.43-2.41 3.64-5.29 9.47-8.64 0.07-4.97 0.83-7.88 2.27-8.89 1.4-1.04 3.42-0.04 6.19 2.88-0.86-4.03-0.61-6.91 1.04-8.64 1.62-1.76 6.16-3.31 8.46-1.87 2.2 1.37 4.14 6.41 4.72 10.11 0.43 3.68-0.18 7.35-1.84 11.56 0.47 5.58-0.18 10.12-2.08 13.61-1.98 3.53-4.94 5.79-9.26 7.2-1.73 3.78-3.92 5.65-6.58 5.76-2.71 0.03-8.65-2.49-9.51-5.33-0.94-2.99 0.25-6.84 3.71-11.99z" fill-rule="evenodd" stroke="#000" stroke-linecap="round" stroke-miterlimit="10" stroke-width=".036"/>
  <path id="path283" stroke-linejoin="round" d="m440.22 318.23c-5.8-1.98-8.36-3.78-8.07-5.54 0.4-1.8 3.64-3.46 10.12-4.97-1.3-5.76-1.23-9.07 0.21-10.08 1.44-1.05 4.14 0.32 8.25 4.1-1.41-5.51-1.55-8.96-0.43-10.91 1.11-1.9 5.25-2.19 7.02-0.43 1.69 1.77 2.7 7.49 2.88 10.51-0.04 2.96-0.83 5.04-2.67 6.81 0.97 6.8 0.58 11.7-1.04 14.83-1.69 3.06-4.72 4.36-9.07 3.74 0 4.07-0.76 6.34-2.67 6.81-1.91 0.32-7.77-1.66-8.46-4.14-0.75-2.52 0.51-6.05 3.93-10.73z" fill-rule="evenodd" stroke="#000" stroke-linecap="round" stroke-miterlimit="10" stroke-width=".036" fill="#fff"/>
  <path id="path285" stroke-linejoin="round" d="m447.2 345.88c-0.68-2.59-0.68-4.82 0-6.41 0.58-1.73 2.34-3.31 3.92-3.49 1.52-0.25 3.35 0.43 5.37 2.05 2.52-1.19 4.64-1.37 6.37-0.39 1.66 0.93 3.28 2.88 3.74 5.97 0.26 2.99-0.75 9.61-1.65 11.95-0.9 2.13-2.31 2.63-3.93 1.23 0.33 3.49-0.21 6.44-2.05 8.46-1.94 2.05-6.87 4.93-8.67 3.92-1.77-1.15-2.27-4.46-1.66-10.33-6.52-0.58-9.83-1.94-10.08-4.1-0.29-2.16 2.59-5.12 8.64-8.86z" fill-rule="evenodd" stroke="#000" stroke-linecap="round" stroke-miterlimit="10" stroke-width=".036"/>
  <path id="path287" stroke-linejoin="round" d="m448.6 346.2c-0.57-2.27-0.57-3.88 0-5.29 0.58-1.48 1.81-2.63 3.24-2.88 1.23-0.14 2.7 0.29 4.43 1.69 2.13-1.01 3.89-1.11 5.29-0.32 1.37 0.83 2.67 2.34 3.06 4.93 0.29 2.41-0.71 8.03-1.36 9.9-0.8 1.84-1.88 2.13-3.24 1.01 0.07 3.67-0.51 6.41-1.88 8.35-1.36 1.84-4.85 4.21-6.19 3.1-1.4-1.15-2.12-4.36-2.16-9.76-5.4-0.5-8.13-1.58-8.35-3.38-0.18-1.84 2.16-4.29 7.16-7.35z" fill-rule="evenodd" stroke="#000" stroke-linecap="round" stroke-miterlimit="10" stroke-width=".036" fill="#fff"/>
  <path id="path289" stroke-linejoin="round" d="m134.68 166.92c-0.32 0.76-0.18 1.37 0.44 1.84 0.5 0.4 2.16 1.22 3.02 0.97 0.83-0.25 1.51-1.11 2.05-2.45 0.4 1.41 1.08 2.06 2.2 1.8 1.11-0.25 2.48-1.33 4.39-3.24-0.22 0.62 0.11 1.23 0.68 1.55 0.51 0.25 1.8 1.08 2.92 0.54 1.12-0.57 2.16-1.87 3.53-3.89-4.11-0.03-7.74 0.08-10.91 0.62-3.24 0.46-6.01 1.22-8.32 2.26z" fill-rule="evenodd" stroke="#000" stroke-linecap="round" stroke-miterlimit="10" stroke-width=".036"/>
  <path id="path291" d="m136.81 164.87c-0.36 0.43-0.58 1.08-0.65 1.55-0.22 0.5-0.29 1.3 0.07 1.55 0.33 0.18 1.26 0.14 1.98-0.4 0.61-0.65 1.19-1.73 1.73-3.38-1.04 0.21-2.09 0.43-3.13 0.68z" fill-rule="evenodd"/>
  <path id="path293" d="m142.32 163.54c-0.26 0.54-0.44 1.15-0.4 1.69-0.04 0.58-0.04 1.26 0.4 1.62 0.28 0.22 1 0.4 1.76-0.29 0.76-0.68 1.58-2.05 2.63-3.96-1.44 0.29-2.92 0.62-4.39 0.94z" fill-rule="evenodd"/>
  <path id="path295" d="m149.23 162.53c-0.4 0.54-0.58 1.3-0.69 1.87-0.1 0.62-0.18 1.62 0.18 1.91 0.18 0.04 1.23-0.32 1.77-0.93 0.65-0.58 1.11-1.66 1.8-2.85h-3.06z" fill-rule="evenodd"/>
  <path id="path297" stroke-linejoin="round" d="m354.9 249.83c0 6.95 1.98 12.57 4.35 12.57 2.41 0 4.36-5.62 4.36-12.57s-1.95-12.56-4.36-12.56c-2.37 0-4.35 5.61-4.35 12.56z" fill-rule="evenodd" stroke="#000" stroke-linecap="round" stroke-miterlimit="10" stroke-width=".036" fill="#fff"/>
  <path id="path299" stroke-linejoin="round" d="m480.72 226.07c-2.2-0.07-3.75 0.58-4.79 1.8-1.08 1.3-1.59 3.42-1.51 5.55 0 1.98 0.5 4.14 1.51 6.48l-0.61 6.44c0.39 2.12 1.36 3.74 3.31 5.25 1.83 1.52 5.04 3.5 7.81 3.32 2.7-0.44 5.87-3.03 8.53-5.4 2.45-2.45 3.64-6.34 6.77-8.89 3.17-2.63 7.13-4.83 12.17-6.74 1.33 1.73 2.73 2.88 4.36 3.6 1.51 0.62 4.97 0.9 5.11 0.44 0.11-0.62-3.57-1.95-4.36-3.6-0.83-1.73-1.08-3.78-0.61-6.45 1.37-1.22 2.77-2.77 4.36-4.79 1.58-2.12 4.03-4.53 4.97-7.23 0.71-2.85 0.79-5.8-0.19-9.29 1.44-1.94 1.55-3.56 0.47-5.4-1.11-1.87-4.25-4.97-7.06-5.26-2.95-0.28-8.2 1.88-10.08 3.42-1.87 1.37-2.41 3.03-1.33 4.97-1.22 0.25-1.98 0.33-2.27 0.61-0.39 0.26-0.28 0.33 0.18 0.62-1.47-0.04-2.3 0.1-2.87 0.57-0.62 0.4-0.58 1.05-0.29 1.95l-2.27 0.61c-1.51-1.73-3.06-2.77-4.79-2.99-1.87-0.4-4.32 0.18-5.54 1.33-1.19 1.12-1.69 3.21-1.52 5.87-1.51-1.33-3.06-1.98-4.78-1.66-1.77 0.22-3.53 3.68-5.73 3.17-2.34-0.57-6.01-5.15-7.95-6.33-2.02-1.23-4.14-2.13-3.75-0.9 0.4 1.18 3.96 5.83 5.83 7.81 1.7 1.8 2.92 2.95 4.5 3.31 1.48 0.4 2.85-0.83 4.69-1.04 1.76-0.36 3.95-0.62 6.29-0.9-0.03 2.95-0.43 5.07-1.04 6.77-0.68 1.58-1.58 2.3-2.84 2.84-1.3 0.5-2.81 0.5-4.68 0.14z" fill-rule="evenodd" stroke="#000" stroke-linecap="round" stroke-miterlimit="10" stroke-width=".036"/>
  <path id="path301" stroke-linejoin="round" d="m486.87 213c-1.33 0.22-2.62 0.62-3.88 1.05-1.23 0.36-2.16 2.16-3.79 1.51-1.83-0.79-5.83-5.33-6.58-5.54-0.79-0.15 1.26 3.06 2.26 4.35 0.98 1.08 1.95 2.49 3.61 2.7 1.54 0.22 3.81-1.26 5.83-1.37 1.94-0.25 3.85-0.25 5.87 0l-0.29-1.8c-1.01-0.28-2.02-0.57-3.03-0.9z" fill-rule="evenodd" stroke="#000" stroke-linecap="round" stroke-miterlimit="10" stroke-width=".036" fill="#fff"/>
  <path id="path303" stroke-linejoin="round" d="m509.7 219.92c1.22 1.26 1.94 2.66 2.55 4.35 0.51 1.62 0.11 3.89 0.61 5.4 0.4 1.37 0.9 1.91 1.95 2.99 0.9 1.04 2.19 2.05 3.74 3.17-0.97-1.73-1.62-3.53-2.23-5.4-0.47-2.09-0.83-4.47-1.22-6.16-0.65-1.76-1.3-3.17-2.24-3.92-0.86-0.76-2.01-0.9-3.16-0.43z" fill-rule="evenodd" stroke="#000" stroke-linecap="round" stroke-miterlimit="10" stroke-width=".036" fill="#fff"/>
  <path id="path305" stroke-linejoin="round" d="m502.78 209.55c0.26-0.25 3.42 1.76 4.36 2.7 0.61 0.79 0.58 1.73 0.32 2.12-0.25 0.33-0.75 0.22-1.51-0.47-0.79-0.86-3.42-4.06-3.17-4.35z" fill-rule="evenodd" stroke="#000" stroke-linecap="round" stroke-miterlimit="10" stroke-width=".036" fill="#fff"/>
  <path id="path307" stroke-linejoin="round" d="m506.38 207.6c0.08-0.28 3.75 1.48 4.36 2.09 0.54 0.61-0.18 1.59-0.9 1.37-0.76-0.36-3.67-3.31-3.46-3.46z" fill-rule="evenodd" stroke="#000" stroke-linecap="round" stroke-miterlimit="10" stroke-width=".036" fill="#fff"/>
  <path id="path309" stroke-linejoin="round" d="m509.26 204.9c0.08-0.18 3.89 1.84 4.65 2.56 0.58 0.54 0.32 1.44-0.47 1.04-0.86-0.5-4.25-3.45-4.18-3.6z" fill-rule="evenodd" stroke="#000" stroke-linecap="round" stroke-miterlimit="10" stroke-width=".036" fill="#fff"/>
  <path id="path311" stroke-linejoin="round" d="m509.55 215.56c0.58-0.54 0.97-0.94 1.19-1.19 0.22-0.29 0.04-0.54-0.14-0.61 0.75 0.32 1.4 0.14 1.65-0.14 0.25-0.47 0.25-1.05 0-2.13 0.83 0.94 1.59 1.05 2.27 0.33 0.61-0.87 1.48-3.5 1.62-4.83-0.04-1.29-0.58-2.48-1.33-2.99-0.87-0.61-1.84-0.86-3.31-0.61 1.26-1.8 2.8-2.95 4.5-3.74 1.58-0.87 3.96-1.12 5.58-0.76 1.65 0.43 3.56 1.44 4.17 3.17 0.51 1.55 0.58 3.1-1.04 6.16-1.73 3.02-4.68 6.69-9 11.55-1.12-1.22-2.13-2.12-3.17-2.84-1.01-0.69-2.05-1.19-2.99-1.37z" fill-rule="evenodd" stroke="#000" stroke-linecap="round" stroke-miterlimit="10" stroke-width=".036" fill="#fff"/>
  <path id="path313" stroke-linejoin="round" d="m503.25 216.46c1.12 1.3 2.45 2.52 3.6 4.07 1.12 1.47 2.45 3.02 3.6 4.79-2.66 1.69-5.22 3.85-7.95 6.76-2.78 2.85-5.48 8.07-8.25 10.37-2.88 2.23-5.69 3.46-8.42 2.85-2.88-0.76-6.55-4.54-8.1-6.92-1.51-2.52-1.26-5.9-1.05-7.52-0.03-1.62 0.51-2.27 1.62-2.09 1.16 0.22 2.81 2.34 5.12 3.31 2.23 0.8 5.86 2.78 8.42 1.66 2.45-1.26 4.5-5.54 6.44-8.42 1.95-2.92 3.46-5.87 4.97-8.86z" fill-rule="evenodd" stroke="#000" stroke-linecap="round" stroke-miterlimit="10" stroke-width=".036" fill="#fff"/>
  <path id="path315" stroke-linejoin="round" d="m501.13 214.05c-0.79-2.63-1.84-4.43-3.13-5.26-1.41-0.83-3.89-1.01-4.83 0.15-1.01 1.04-1.44 4.39-0.9 6.15 0.58 1.62 2.34 2.88 3.78 3.78 1.23 0.9 2.38 1.3 3.6 1.48 0.47-2.09 0.97-4.18 1.48-6.3z" fill-rule="evenodd" stroke="#000" stroke-linecap="round" stroke-miterlimit="10" stroke-width=".036" fill="#fff"/>
  <path id="path317" stroke-linejoin="round" d="m477.26 240.94c1.48 2.92 3.1 4.82 5.26 5.87 2.16 1.01 4.93 0.82 7.2 0.28 2.05-0.61 3.2-2.05 5.25-3.92 2.02-2.02 4.18-5.11 6.77-7.63 2.52-2.59 5.33-5.15 8.43-7.67-0.26 1.91-0.26 3.31 0 4.21 0.14 0.87 0.53 1.12 1.18 0.9-3.56 1.51-6.51 3.31-8.85 5.26-2.41 1.98-3.24 3.99-5.4 6.44-2.31 2.31-5.33 6.48-7.81 7.81-2.63 1.12-4.94 0.8-7.06-0.14-2.05-0.97-3.85-2.59-5.26-5.26 0.07-2.05 0.18-4.1 0.29-6.15z" fill-rule="evenodd" stroke="#000" stroke-linecap="round" stroke-miterlimit="10" stroke-width=".036" fill="#fff"/>
  <path id="path319" stroke-linejoin="round" d="m517.36 222.33c0.55-0.87 1.59-2.38 3.14-4.68 1.54-2.38 3.6-5.29 6.15-9.15 1.41 1.59 1.23 3.89-0.14 6.77-1.48 2.88-4.32 6.34-8.53 10.51-0.18-1.15-0.4-2.3-0.62-3.45z" fill-rule="evenodd" stroke="#000" stroke-linecap="round" stroke-miterlimit="10" stroke-width=".036" fill="#fff"/>
  <path id="path321" stroke-linejoin="round" d="m440.33 94.023c-4.83-0.648-8.5-1.944-11.16-4.032-2.71-2.196-4.54-5.004-4.97-8.424-0.58-3.492 0-7.308 1.73-11.88 4.24-0.252 8.24 0.396 12.13 2.088 3.85 1.62 7.56 4.176 11.12 7.668 0.25-6.66 1.59-11.52 3.71-14.58 2.16-3.168 6.37-3.96 9.18-3.888 2.66 0.036 4.36 2.088 6.88 4.212 2.44 2.088 5.18 4.644 8.06 8.064 0.94-3.744 2.27-6.048 3.85-6.624 1.69-0.648 5.01 1.116 5.62 2.772 0.36 1.584-0.69 3.78-3.28 6.732 3.53 2.592 5.98 5.4 7.89 8.964 1.83 3.42 4.68 5.904 2.84 11.736-2.09 5.799-6.88 13.209-14.8 22.679-5.14-1.8-9.97-4.32-14.86-7.41-4.9-3.28-10.12-8.46-14.11-11.52-4-3.029-7.28-5.261-9.83-6.557z" fill-rule="evenodd" stroke="#000" stroke-linecap="round" stroke-miterlimit="10" stroke-width=".036"/>
  <path id="path323" stroke-linejoin="round" d="m451.23 95.895c-0.29-5.148-1.19-9.396-2.7-12.6-1.54-3.348-3.63-4.968-6.69-6.948-3.24-2.088-7.38-3.528-12.57-4.86 2.52 6.336 5.55 11.376 9.22 15.552 3.63 4.068 7.88 7.02 12.74 8.856z" fill-rule="evenodd" stroke="#000" stroke-linecap="round" stroke-miterlimit="10" stroke-width=".036" fill="#fff"/>
  <path id="path325" stroke-linejoin="round" d="m426.79 73.503c-1.3 2.16-1.87 4.428-1.73 6.66 0 2.196 0.5 5.076 2.48 6.84 2.09 1.764 5.15 2.772 9.72 3.456-1.76-1.908-3.45-4.428-5.07-7.56-1.69-3.204-3.17-7.02-4.72-11.448l-0.68 2.052z" fill-rule="evenodd" stroke="#000" stroke-linecap="round" stroke-miterlimit="10" stroke-width=".036" fill="#fff"/>
  <path id="path327" stroke-linejoin="round" d="m454.94 97.443c-0.5-1.656-1.04-3.42-1.48-5.724-0.46-2.268-0.97-4.932-1.36-7.848 3.38 3.708 6.4 5.544 9.07 5.508 2.63-0.144 6.37-2.736 6.77-5.832 0.18-3.276-2.81-10.476-5.08-12.996-2.27-2.484-5.15-3.023-8.5-1.764 2.13-3.168 4.43-4.752 6.92-4.896 2.48-0.216 5.04 1.836 7.81 4.068 2.77 2.304 5.58 5.256 8.71 9.396 0.4 5.112 0.04 10.152-1.37 15.264-1.43 5.04-3.63 10.121-6.87 15.231-3.17-2.77-5.8-4.79-8.28-6.59-2.52-1.765-4.5-2.989-6.34-3.817z" fill-rule="evenodd" stroke="#000" stroke-linecap="round" stroke-miterlimit="10" stroke-width=".036" fill="#fff"/>
  <path id="path329" stroke-linejoin="round" d="m482.01 77.751c4.57 2.628 7.53 5.76 8.71 9.396 1.12 3.564 0.58 7.452-1.47 12.204-2.09 4.649-5.73 9.899-10.91 15.769l-5.62-6.12c4.14-4.79 7.06-9.721 8.61-14.941 1.55-5.292 1.73-10.584 0.68-16.308z" fill-rule="evenodd" stroke="#000" stroke-linecap="round" stroke-miterlimit="10" stroke-width=".036" fill="#fff"/>
  <path id="path331" stroke-linejoin="round" d="m481.15 73.971c1.69-1.008 2.66-1.908 2.91-2.844 0.19-1.044-0.93-3.204-1.69-2.736-0.83 0.468-1.8 2.268-3.06 5.544 0.61 0 1.23 0 1.84 0.036z" fill-rule="evenodd" stroke="#000" stroke-linecap="round" stroke-miterlimit="10" stroke-width=".036" fill="#fff"/>
  <path id="path333" stroke-linejoin="round" d="m455.84 70.839c1.3 0.54 4.18 2.304 5.58 4.608 1.37 2.196 2.52 6.768 2.2 8.568-0.54 1.584-3.46 2.16-5.15 1.584-1.87-0.756-4.39-2.844-5.19-5.148-0.79-2.34-0.03-6.48 0.47-8.136 0.36-1.656 0.83-2.016 2.09-1.476z" fill-rule="evenodd" stroke="#000" stroke-linecap="round" stroke-miterlimit="10" stroke-width=".036" fill="#fff"/>
  <path id="path335" stroke-linejoin="round" d="m429.42 145.36c9.03 2.63 16.09 5.44 21.31 8.42 5.11 2.96 7.81 6.38 9.9 9.44 1.98 3.02 3.2 8.53 2.3 8.35-0.97-0.47-3.45-7.13-7.74-10.26-4.43-3.13-13.14-6.34-17.96-8.35-4.75-2.09-8.24-3.35-10.48-3.93 0.87-1.22 1.77-2.45 2.67-3.67z" fill-rule="evenodd" stroke="#000" stroke-linecap="round" stroke-miterlimit="10" stroke-width=".036"/>
  <path id="path337" stroke-linejoin="round" d="m482.62 158.36c8.21 3.49 13.9 6.08 17.21 7.92 3.24 1.72 2.27 1.69 2.38 2.8 0.04 1.12-1.08 3.75-1.98 3.71-1.08-0.25-0.51-2.81-3.81-4.61-3.32-1.8-8.57-3.7-15.92-5.86-2.37 4.06-5.4 6.87-9.61 8.42-4.32 1.48-12.06 2.38-15.3 0.61-3.09-1.94-3.17-8.13-3.56-11.77-0.51-3.74 1.22-9.54 0.32-10.04-1.04-0.44-4.14 3.99-6.51 7.05-2.45 2.88-5.01 8.32-7.96 10.33-3.2 1.98-7.82 3.06-10.22 1.3-2.49-1.94-4.07-8.35-3.79-12.56 0.29-4.29 2.16-8.61 5.62-12.96 2.38-1.55 6.73-2.13 13.36-2.02 6.55 0.11 19.9 1.37 26.02 2.81 5.98 1.33 7.71 2.81 10.05 5.4 2.3 2.45 3.49 5.65 3.7 9.47z" fill-rule="evenodd" stroke="#000" stroke-linecap="round" stroke-miterlimit="10" stroke-width=".036"/>
  <path id="path339" stroke-linejoin="round" d="m456.17 146.84c2.44-3.24 12.45 1.29 16.02 2.52 3.45 1.11 4.78 1.98 4.97 4.68 0.1 2.8-1.3 8.96-4.5 11.52-3.39 2.48-12.32 5.72-15.13 2.77-2.73-3.24-3.89-18.36-1.36-21.49z" fill-rule="evenodd" stroke="#000" stroke-linecap="round" stroke-miterlimit="10" stroke-width=".036" fill="#fff"/>
  <path id="path341" stroke-linejoin="round" d="m446.77 147.92c-0.51 2.23-4 6.62-6.59 9.72-2.7 2.98-6.48 8.35-8.82 8.17-2.41-0.29-5.08-6.16-5.08-9.54 0.08-3.57 2.49-9.07 5.3-11.13 2.7-2.12 8.13-1.44 10.76-1 2.52 0.32 4.65 1.58 4.43 3.78z" fill-rule="evenodd" stroke="#000" stroke-linecap="round" stroke-miterlimit="10" stroke-width=".036" fill="#fff"/>
  <metadata>
    <rdf:RDF>
      <cc:Work>
        <dc:format>image/svg+xml</dc:format>
        <dc:type rdf:resource="http://purl.org/dc/dcmitype/StillImage"/>
        <cc:license rdf:resource="http://creativecommons.org/licenses/publicdomain/"/>
        <dc:publisher>
          <cc:Agent rdf:about="http://openclipart.org/">
            <dc:title>Openclipart</dc:title>
          </cc:Agent>
        </dc:publisher>
        <dc:title>Beach Trip</dc:title>
        <dc:date>2007-11-14T17:59:14</dc:date>
        <dc:description>Adapted from AbiClipart project.&#xD;\nhttp://www.ibiblio.org/abiclipart</dc:description>
        <dc:source>http://openclipart.org/detail/8420/beach-trip-by-gerald_g-8420</dc:source>
        <dc:creator>
          <cc:Agent>
            <dc:title>Gerald_G</dc:title>
          </cc:Agent>
        </dc:creator>
        <dc:subject>
          <rdf:Bag>
            <rdf:li>abliclipart</rdf:li>
            <rdf:li>beach</rdf:li>
            <rdf:li>car</rdf:li>
            <rdf:li>cartoon</rdf:li>
            <rdf:li>clip art</rdf:li>
            <rdf:li>clipart</rdf:li>
            <rdf:li>colouring book</rdf:li>
            <rdf:li>externalsource</rdf:li>
            <rdf:li>people</rdf:li>
            <rdf:li>transportation</rdf:li>
          </rdf:Bag>
        </dc:subject>
      </cc:Work>
      <cc:License rdf:about="http://creativecommons.org/licenses/publicdomain/">
        <cc:permits rdf:resource="http://creativecommons.org/ns#Reproduction"/>
        <cc:permits rdf:resource="http://creativecommons.org/ns#Distribution"/>
        <cc:permits rdf:resource="http://creativecommons.org/ns#DerivativeWorks"/>
      </cc:License>
    </rdf:RDF>
  </metadata>
</svg>
