<?xml version="1.0"?>
<svg width="433.021" height="555.613" xmlns="http://www.w3.org/2000/svg" xmlns:svg="http://www.w3.org/2000/svg" enable-background="new 0 0 433.021 555.613" version="1.1" xml:space="preserve">

 <metadata>image/svg+xmlOpenclipartSkating Panda Coloring Page2013-10-31T17:28:43A Skating Panda Coloring Pagehttps://openclipart.org/detail/187797/skating-panda-coloring-page-by-pianobrad-187797pianoBradblack and whitecoloring bookholidayice skatingpandaseasons</metadata>
 <g class="layer">
  <title>Layer 1</title>
  <path d="m71.31,350.73c-6.87,14.2 -1.2,31.15 12.66,37.86c13.87,6.71 30.68,0.63 37.55,-13.57s1.2,-31.15 -12.66,-37.86c-13.87,-6.71 -30.68,-0.63 -37.55,13.57z" fill="#fff" id="path3683" stroke="#000" stroke-linecap="square" stroke-width="9"/>
  <g fill="#fff" id="g4666" transform="matrix(.97248 -.23297 .23297 .97248 153.37 22.17)">
   <g id="g4658" transform="translate(60.238 -83.499)">
    <path d="m-145.82,321.06c-23.17,4.29 -55.68,1.33 -81.73,23.84c-12.93,11.17 6.15,9.11 9.57,12.65c2.95,3.06 -7.69,13.26 12.27,11.22c6.12,-0.63 0.08,19.62 10.1,9.17c28.01,-29.24 53.53,-29.16 73.68,-28.14l6.48,-45.12c-9.78,-0.49 -16.47,13.8 -30.37,16.38z" id="path5233-2"/>
    <path d="m-145.82,321.06c-23.17,4.29 -55.68,1.33 -81.73,23.84c-12.93,11.17 6.15,9.11 9.57,12.65c2.95,3.06 -7.69,13.26 12.27,11.22c6.12,-0.63 0.08,19.62 10.1,9.17c28.01,-29.24 53.53,-29.16 73.68,-28.14l6.48,-45.12c-9.78,-0.49 -16.47,13.8 -30.37,16.38z" enable-background="new    " id="path5233" opacity="0.7"/>
   </g>
   <path d="m-85.58,237.56c-23.17,4.29 -55.68,1.33 -81.74,23.84c-12.92,11.17 6.16,9.11 9.57,12.65c2.96,3.06 -7.68,13.26 12.28,11.21c6.11,-0.62 0.08,19.63 10.09,9.18c28.02,-29.24 53.54,-29.16 73.68,-28.14l6.48,-45.12c-9.77,-0.49 -16.46,13.8 -30.36,16.38l0,0z" id="path5233-26" stroke="#000" stroke-linecap="round" stroke-linejoin="round" stroke-width="9"/>
  </g>
  <g fill="#fff" id="g4652" transform="translate(266.46 151.02)">
   <g id="g4644" transform="translate(18.906 -157.66)">
    <path d="m-250.57,214.55c-1.34,4.04 3.02,6.18 2.56,9.76c-0.45,3.54 -3.27,3.69 -3.95,7.45c-0.53,2.98 1.95,9.3 1.06,12.42c-1.38,4.9 -4.12,6.97 -4.12,6.97c-0.67,2.31 -0.22,3.91 2.32,4.34c24.05,3.34 27.65,9.81 41.13,23.04c13.98,13.72 38.6,23.6 81.95,31.2l5.86,-35.17c-35.05,-6.15 -43.16,-15.25 -56.28,-28.12c-12.39,-12.16 -30.93,-29.46 -64,-35.12c-2.73,-0.68 -5.7,-0.48 -6.53,3.23z" id="path5231-5"/>
    <path d="m-250.57,214.55c-1.34,4.04 3.02,6.18 2.56,9.76c-0.45,3.54 -3.27,3.69 -3.95,7.45c-0.53,2.98 1.95,9.3 1.06,12.42c-1.38,4.9 -4.12,6.97 -4.12,6.97c-0.67,2.31 -0.22,3.91 2.32,4.34c24.05,3.34 27.65,9.81 41.13,23.04c13.98,13.72 38.6,23.6 81.95,31.2l5.86,-35.17c-35.05,-6.15 -43.16,-15.25 -56.28,-28.12c-12.39,-12.16 -30.93,-29.46 -64,-35.12c-2.73,-0.68 -5.7,-0.48 -6.53,3.23z" enable-background="new    " id="path5231" opacity="0.7"/>
   </g>
   <path d="m-231.67,56.89c-1.34,4.04 3.02,6.18 2.56,9.76c-0.45,3.54 -3.27,3.69 -3.95,7.44c-0.53,2.99 1.95,9.31 1.06,12.42c-1.38,4.9 -4.12,6.98 -4.12,6.98c-0.67,2.31 -0.22,3.91 2.32,4.33c24.05,3.35 27.65,9.82 41.13,23.04c13.98,13.73 38.6,23.6 81.96,31.21l5.85,-35.17c-35.05,-6.15 -43.16,-15.25 -56.28,-28.13c-12.38,-12.16 -30.93,-29.45 -64,-35.12c-2.72,-0.68 -5.7,-0.48 -6.53,3.23l0,0l0,0.01z" id="path5231-4" stroke="#000" stroke-linecap="round" stroke-linejoin="round" stroke-width="9"/>
  </g>
  <path d="m197.96,494.12c17.85,-8.77 17.67,-34.58 13.67,-62.02c-2.44,-16.69 -8.33,-23.87 -12.77,-29.53c-3.86,-4.92 -10.28,-8.37 -16.78,-5.98c-24.39,8.96 -22.04,21.94 -17.83,37.33c5.97,21.79 1.01,35.11 5.66,47.52c2.72,7.27 8.35,18.42 28.05,12.68z" fill="#fff" id="path3133-6-4-6-9-5" stroke="#000" stroke-linecap="square" stroke-width="9"/>
  <path d="m136.93,311.53c-31.75,33.75 -31.63,63.08 1.14,102.26l19.49,18.1c26.11,4.75 74.29,7.32 92.44,-35.32c26.39,-61.95 14.34,-113.58 1.25,-131.06c-18.41,-11.76 -63.22,-8.3 -114.31,46.02l-0.01,0z" fill="#fff" id="path3133-6-8-5" stroke="#000" stroke-linecap="square" stroke-width="9"/>
  <path d="m88.33,446.98c20.46,14.57 47.11,11.01 64.56,-14.3c9.58,-13.89 15.63,-19.87 18,-26.67c2.06,-5.9 1.52,-13.16 -4,-17.36c-20.69,-15.72 -31.42,-7.61 -41.05,5.1c-21.19,27.94 -32.6,9.73 -40.55,20.34c-4.65,6.2 -12.41,19.38 3.04,32.89z" fill="#fff" id="path3133-6-4-6-9-5-8" stroke="#000" stroke-linecap="square" stroke-width="9"/>
  <path d="m163.33,284.52l-32.43,32.56c10.78,-6.57 19.03,-10.74 15,5.32l43.35,-11.93c-16.96,-4.52 -33.82,-6.57 -25.93,-25.94l0.01,-0.01z" fill="#fff" id="rect4188"/>
  <path d="m178.5,519.85l-2.11,6.65c-0.9,2.84 -1.55,6.63 -2.19,10.31c-0.05,0.3 -0.1,0.5 -0.15,0.79l-17.4,-0.05c-4.56,-0.06 -8.37,2.95 -8.5,6.73c-0.13,3.78 3.46,6.9 8.02,6.97c0.08,0 0.16,0 0.24,0l96.1,0.28c9.74,0.02 16.68,-1.73 21.29,-3.88c2.31,-1.08 4.03,-2.23 5.22,-3.24c1.2,-1.01 2.19,-2.28 2.19,-2.28c2.39,-3.25 1.18,-7.46 -2.7,-9.4c-1.25,-0.63 -2.69,-0.97 -4.17,-0.98c-2.83,-0.02 -5.49,1.15 -7.05,3.12c-0.16,0.13 -0.59,0.46 -1.49,0.88c-1.83,0.85 -5.65,2.1 -13.05,2.08l-17.3,-0.05l-1.34,-8.57l-1.05,-6.78l-16.37,1.9l1.04,6.78l1.02,6.62l-28.02,-0.08c0.6,-3.32 1.36,-6.98 1.61,-7.79l2.14,-6.65l-15.95,-3.36l-0.03,0z" fill="#fff" id="path3673-2" stroke="#000" stroke-width="9"/>
  <path d="m160.34,461.54l3.36,30.2c-5.02,3.49 -7.95,7.59 -8.03,12c-0.08,4.37 -0.68,14.37 0.87,19.06c10.09,4.84 33.33,4.33 53.17,4.39c19.71,0.05 41.52,-0.04 52.44,-4.36c5.07,-3.51 2.29,-14.35 2.37,-18.78c0.12,-6.46 -6.4,-11.91 -16.78,-14.41c-0.53,-1.37 -2.55,-2.33 -4.87,-2.31c-1.11,0.01 -2.19,0.24 -3.06,0.67c-0.28,0.13 -0.4,0.2 -0.68,0.33c-2.28,-0.17 -4.66,-0.21 -7.15,-0.12c1.68,-1.32 1.29,-3.21 -0.88,-4.22c-0.87,-0.41 -1.93,-0.63 -3.03,-0.63c-1.11,0.01 -2.19,0.25 -3.06,0.67c-1.62,0.77 -2.68,1.25 -3.91,1.84l0.66,-3.48c1.04,-0.2 1.7,-0.33 2.95,-0.57c2.63,-0.47 4.15,-2.15 3.4,-3.74c-0.44,-0.93 -1.58,-1.67 -3.06,-1.99c-0.67,-0.15 -1.38,-0.2 -2.09,-0.16l0.71,-3.93c0.21,-0.03 0.28,-0.04 0.49,-0.07c2.68,-0.37 4.37,-1.98 3.79,-3.61c-0.34,-0.93 -1.38,-1.7 -2.81,-2.09c-0.12,-0.03 -0.25,-0.06 -0.38,-0.1l0.74,-4.01c-17.85,2.17 -36.83,5.3 -65.15,-0.6l0,0l-0.01,0.02z" fill="#fff" id="path3667-6-3" stroke="#000" stroke-linecap="round" stroke-linejoin="round" stroke-width="9"/>
  <path d="m160.32,461.54l3.37,30.21c-5.02,3.5 -7.94,7.59 -8.02,11.99c-0.08,4.37 -0.7,14.38 0.86,19.07c10.08,4.84 33.32,4.32 53.16,4.38c19.71,0.06 41.53,-0.03 52.45,-4.35c5.07,-3.51 2.29,-14.36 2.36,-18.79c0.2,-11.08 -19.07,-19.22 -44.06,-14.53l5.04,-27.4c-17.85,2.19 -36.83,5.32 -65.16,-0.58z" fill="#fff" id="path3667-7" stroke="#000" stroke-linecap="square" stroke-width="9"/>
  <path d="m258.5,498.48c-0.38,4.24 -6.21,7.38 -13.02,7.02c-6.81,-0.35 -12.02,-4.08 -11.64,-8.31s6.21,-7.38 13.02,-7.03c6.81,0.36 12.02,4.09 11.64,8.32z" fill="#fff" id="path4767-8"/>
  <path d="m242.87,487.34c-1.11,0.01 -2.19,0.24 -3.06,0.67c-10.8,5.11 -12.34,6 -12.34,6c-2,1.15 -2.11,3.06 -0.23,4.27c1.87,1.2 5,1.26 7,0.11c0.05,-0.03 0.1,-0.06 0.15,-0.09c0,0 0.75,-0.46 11.48,-5.54c2.2,-1 2.66,-2.89 1.03,-4.22c-0.93,-0.77 -2.43,-1.22 -4.02,-1.2l-0.01,0z" fill="#fff" id="path3645-5" stroke="#000" stroke-width="9"/>
  <path d="m228.05,483.37c-1.11,0.01 -2.19,0.24 -3.06,0.67c-10.8,5.11 -12.34,6.01 -12.34,6.01c-2,1.14 -2.11,3.05 -0.24,4.26c1.88,1.2 5.01,1.26 7.01,0.11c0.05,-0.03 0.1,-0.06 0.15,-0.09c0,0 0.75,-0.47 11.48,-5.55c2.19,-1.01 2.62,-2.9 0.97,-4.23c-0.93,-0.75 -2.4,-1.19 -3.96,-1.18l-0.01,0z" fill="#fff" id="path3645-1-8" stroke="#000" stroke-width="9"/>
  <path d="m225.05,476.1c-1.05,-0.23 -2.2,-0.24 -3.27,-0.03c-13.03,2.51 -14.97,3.03 -14.97,3.03c-2.52,0.65 -3.71,2.42 -2.66,3.95c1.06,1.53 3.96,2.25 6.49,1.6c0.06,-0.02 0.12,-0.04 0.18,-0.05c0,0 0.95,-0.28 13.9,-2.77c2.63,-0.48 4.14,-2.15 3.38,-3.75c-0.45,-0.91 -1.58,-1.65 -3.06,-1.97l0.01,-0.01z" fill="#fff" id="path3645-7-5" stroke="#000" stroke-width="9"/>
  <path d="m225.13,466.23c-1.01,-0.27 -2.15,-0.33 -3.23,-0.16c-13.29,1.95 -15.29,2.39 -15.29,2.39c-2.6,0.54 -3.99,2.26 -3.11,3.83c0.88,1.57 3.69,2.41 6.29,1.86c0.06,-0.01 0.12,-0.02 0.19,-0.04c0,0 0.99,-0.23 14.19,-2.17c2.68,-0.36 4.38,-1.97 3.81,-3.6c-0.34,-0.96 -1.4,-1.74 -2.85,-2.13l0,0.02z" fill="#fff" id="path3645-4-8" stroke="#000" stroke-width="9"/>
  <g fill="#fff" id="g4795-7-5" transform="matrix(-.19227 .80354 -.66373 -.16929 506.87 684.86)">
   <path d="m-193.26,738.58l-2.4,9.72c-1.04,4.15 -1.75,9.69 -2.44,15.06c-0.06,0.44 -0.1,0.73 -0.16,1.16l-21.06,0c-5.53,-0.08 -10.06,4.33 -10.14,9.86c-0.08,5.52 4.33,10.06 9.86,10.14c0.09,0 0.18,0 0.28,0l116.31,0c11.79,0 20.14,-2.58 25.68,-5.75c2.77,-1.58 4.83,-3.28 6.25,-4.75s2.6,-3.34 2.6,-3.34c2.83,-4.75 1.28,-10.89 -3.47,-13.72c-1.53,-0.91 -3.28,-1.4 -5.06,-1.41c-3.43,-0.02 -6.62,1.72 -8.47,4.59c-0.19,0.2 -0.71,0.67 -1.78,1.29c-2.2,1.25 -6.8,3.09 -15.75,3.09l-20.94,0l-1.81,-12.5l-1.41,-9.91l-19.78,2.85l1.41,9.9l1.37,9.66l-33.9,0c0.65,-4.85 1.48,-10.2 1.78,-11.38l2.43,-9.71l-19.41,-4.84l0.01,-0.01z" id="path3673-2-9" stroke="#000" stroke-width="9"/>
   <path d="m-216.5,653.53l4.72,44.07c-6.01,5.13 -9.47,11.13 -9.47,17.56c0,6.38 -0.52,20.99 1.47,27.82c12.3,7.03 40.43,6.19 64.44,6.19c23.85,0 50.24,-0.23 63.37,-6.58c6.07,-5.15 2.47,-20.97 2.47,-27.43c0,-9.43 -8,-17.36 -20.62,-20.97c-0.68,-2 -3.14,-3.39 -5.94,-3.35c-1.35,0.02 -2.64,0.36 -3.69,0.98c-0.34,0.2 -0.49,0.3 -0.81,0.49c-2.76,-0.23 -5.65,-0.28 -8.66,-0.14c2.01,-1.94 1.49,-4.7 -1.15,-6.17c-1.06,-0.59 -2.36,-0.9 -3.69,-0.89c-1.34,0.02 -2.64,0.36 -3.69,0.99c-1.94,1.12 -3.21,1.84 -4.69,2.7l0.72,-5.09c1.26,-0.3 2.05,-0.49 3.57,-0.84c3.17,-0.7 4.97,-3.15 4.02,-5.48c-0.55,-1.35 -1.94,-2.42 -3.74,-2.89c-0.82,-0.21 -1.68,-0.29 -2.54,-0.23l0.79,-5.73c0.24,-0.04 0.34,-0.07 0.59,-0.12c3.23,-0.54 5.24,-2.9 4.5,-5.27c-0.43,-1.36 -1.7,-2.49 -3.44,-3.04c-0.15,-0.05 -0.31,-0.1 -0.47,-0.14l0.82,-5.87c-21.53,3.3 -44.44,7.95 -78.85,-0.54l0,0l-0.03,-0.03z" id="path3667-6-3-7" stroke="#000" stroke-linecap="round" stroke-linejoin="round" stroke-width="9"/>
   <path d="m-216.52,653.52l4.73,44.09c-6.01,5.13 -9.46,11.12 -9.46,17.55c0,6.38 -0.53,20.99 1.46,27.83c12.3,7.03 40.42,6.18 64.43,6.18c23.85,0 50.26,-0.22 63.39,-6.57c6.06,-5.14 2.46,-20.98 2.46,-27.44c0,-16.19 -23.5,-27.99 -53.65,-21.04l5.52,-40.02c-21.55,3.28 -44.45,7.93 -78.87,-0.57l-0.01,-0.01z" id="path3667-7-2" stroke="#000" stroke-linecap="square" stroke-width="9"/>
   <path d="m-96.9,707.05c-0.37,6.19 -7.36,10.8 -15.61,10.31c-8.25,-0.49 -14.63,-5.91 -14.27,-12.09s7.36,-10.81 15.61,-10.32c8.25,0.5 14.64,5.92 14.27,12.1z" id="path4767-8-0"/>
   <path d="m-116.06,690.84c-1.34,0.02 -2.64,0.36 -3.69,0.99c-12.96,7.5 -14.81,8.82 -14.81,8.82c-2.39,1.68 -2.48,4.46 -0.19,6.22c2.29,1.76 6.09,1.82 8.49,0.14c0.06,-0.04 0.11,-0.09 0.17,-0.13c0,0 0.9,-0.68 13.78,-8.13c2.64,-1.47 3.16,-4.23 1.16,-6.17c-1.15,-1.1 -2.97,-1.75 -4.9,-1.72l-0.01,-0.02z" id="path3645-5-2" stroke="#000" stroke-width="9"/>
   <path d="m-134.08,685.11c-1.35,0.02 -2.64,0.36 -3.69,0.99c-12.97,7.5 -14.81,8.82 -14.81,8.82c-2.39,1.68 -2.48,4.46 -0.19,6.22c2.29,1.76 6.09,1.82 8.48,0.14c0.06,-0.04 0.12,-0.08 0.18,-0.13c0,0 0.9,-0.7 13.78,-8.16c2.62,-1.48 3.11,-4.24 1.08,-6.17c-1.14,-1.1 -2.93,-1.73 -4.82,-1.71l-0.01,0z" id="path3645-1-8-8" stroke="#000" stroke-width="9"/>
   <path d="m-137.87,674.51c-1.27,-0.34 -2.67,-0.35 -3.95,-0.03c-15.73,3.72 -18.05,4.49 -18.05,4.49c-3.05,0.96 -4.45,3.55 -3.14,5.78c1.31,2.23 4.84,3.26 7.88,2.3c0.08,-0.02 0.15,-0.05 0.22,-0.07c0,0 1.14,-0.42 16.76,-4.11c3.18,-0.7 4.97,-3.15 4.02,-5.48c-0.55,-1.34 -1.94,-2.41 -3.74,-2.88z" id="path3645-7-5-6" stroke="#000" stroke-width="9"/>
   <path d="m-137.98,660.1c-1.23,-0.39 -2.61,-0.47 -3.91,-0.22c-16.04,2.91 -18.46,3.55 -18.46,3.55c-3.13,0.8 -4.78,3.31 -3.68,5.61c1.1,2.29 4.52,3.5 7.65,2.69c0.08,-0.02 0.15,-0.04 0.23,-0.06c0,0 1.2,-0.35 17.13,-3.23c3.23,-0.54 5.26,-2.9 4.53,-5.27c-0.44,-1.39 -1.74,-2.53 -3.5,-3.09l0.01,0.02z" id="path3645-4-8-7" stroke="#000" stroke-width="9"/>
  </g>
  <path d="m303.57,37.13c-6.83,24.47 9.78,50.46 37.1,58.07c27.33,7.6 55.01,-6.07 61.84,-30.53s-9.77,-50.47 -37.1,-58.07c-27.32,-7.6 -55.01,6.07 -61.84,30.53z" fill="#fff" id="path4104-4" stroke="#000" stroke-linecap="square" stroke-width="9"/>
  <path d="m100.86,198.7c10.95,81.2 116.97,117.82 210.42,96.47c89.5,-20.45 132.14,-79.57 110.64,-158.62c-22.02,-80.93 -96.08,-136.75 -187.05,-124.4c-90.96,12.35 -144.96,105.35 -134.01,186.55z" fill="#fff" id="path3133-8-5-7" stroke="#000" stroke-linecap="square" stroke-width="9"/>
  <path d="m76.82,139.87c21.59,8.69 49.11,-5.4 61.45,-31.45s4.85,-54.22 -16.74,-62.91c-21.59,-8.69 -49.11,5.4 -61.45,31.45s-4.85,54.22 16.74,62.91z" fill="#fff" id="path4106-8-8" stroke="#000" stroke-linecap="square" stroke-width="9"/>
  <path d="m358.87,231.95s12.4,24.09 -11.89,28.16c-11.51,1.94 -24.29,-15.22 -24.29,-15.22s-1.49,16.03 -15.59,24.95c-12.59,7.97 -21.8,6.69 -31.14,3.66c-12.8,-4.16 -14.98,-15.92 -14.98,-15.92" fill="none" id="path4137-4" stroke="#000" stroke-linecap="square" stroke-width="9"/>
  <path d="m393.79,136.27c32.93,17.26 42.47,49.93 28.82,68.84c-10.02,13.88 -22.98,23.87 -41.16,17.99c-26.31,-8.51 -20.24,-24.56 -41.89,-37.77c-19.02,-11.61 -24.36,-33.1 -16.41,-45.75c9.52,-15.13 37.73,-20.57 70.65,-3.31l-0.01,0z" id="path4111-2-7" stroke="#000" stroke-linecap="square" stroke-width="9"/>
  <g fill="#fff" id="g3110-3-1" stroke="#000" stroke-linecap="square" stroke-width="9" transform="translate(0 -12.379)">
   <path d="m334.3,182.2c4.86,12.79 18.42,18.66 30.27,13.1s17.53,-20.45 12.67,-33.24c-4.85,-12.79 -18.41,-18.66 -30.27,-13.1c-11.85,5.56 -17.53,20.46 -12.67,33.24z" id="path7046-3-1"/>
   <path d="m370.22,173.09c0.01,-0.01 -14.04,-15.15 -23.21,-7.83c-6.78,5.42 -2.47,18.94 -2.47,18.94" id="path8989-4-5"/>
  </g>
  <path d="m196.87,157.22c-29.66,17.53 -43.65,50.05 -33.96,80.26c10.93,34.08 53.18,40.6 75.6,27.29c15.28,-9.06 14.27,-36.12 25.11,-49.8c12.5,-15.75 12,-32.37 3.32,-51.88c-10.42,-23.45 -40.41,-23.39 -70.07,-5.87z" id="path4113-1-7-2" stroke="#000" stroke-linecap="square" stroke-width="9"/>
  <g fill="#fff" id="g3114-1-6-9" stroke="#000" stroke-linecap="square" stroke-width="9" transform="matrix(.99025 .13929 -.13929 .99025 -733.65 -477.41)">
   <path d="m1021,524.7c2.67,14.49 17.27,23.93 32.58,21.06c15.31,-2.87 25.56,-16.96 22.89,-31.45c-2.68,-14.5 -17.27,-23.93 -32.58,-21.06c-15.3,2.87 -25.6,16.96 -22.9,31.45l0.01,0z" id="path8987-3-1-13"/>
   <path d="m1069.5,520.28s-7.32,-18.37 -18.13,-15.69c-13.4,3.32 -12.77,20.63 -12.77,20.63" id="path9960-8-4-5"/>
  </g>
  <g fill="#fff" id="g4676" transform="translate(243.37 -21.163)">
   <path d="m-97.5,306.66c-2.77,5.78 -6.36,5.55 -6.7,9.25c-0.6,6.33 2.75,8.61 16.2,15.08c15.74,7.58 17.19,-4.43 36.87,-1.58c15.73,2.28 28.96,20.5 41.31,24.15c19.12,5.64 31,8.7 34.81,0.76c3.33,-6.93 -4.36,-10.97 -4.5,-14.92c-0.15,-4.4 9.65,-4.15 8.82,-11.65c-0.32,-2.92 -4.02,-7.9 -7.25,-9.28c-2.85,-1.21 -20.26,-8.2 -46.59,-10.15c-27.35,-2.03 -59.71,-25.94 -71.67,-15.95c-6.62,5.53 -0.64,9.25 -1.3,14.28l0,0.01z" id="path5227-5"/>
   <path d="m-97.5,306.66c-2.77,5.78 -6.36,5.55 -6.7,9.25c-0.6,6.33 2.75,8.61 16.2,15.08c15.74,7.58 17.19,-4.43 36.87,-1.58c15.73,2.28 28.96,20.5 41.31,24.15c19.12,5.64 31,8.7 34.81,0.76c3.33,-6.93 -4.36,-10.97 -4.5,-14.92c-0.15,-4.4 9.65,-4.15 8.82,-11.65c-0.32,-2.92 -4.02,-7.9 -7.25,-9.28c-2.85,-1.21 -20.26,-8.2 -46.59,-10.15c-27.35,-2.03 -59.71,-25.94 -71.67,-15.95c-6.62,5.53 -0.64,9.25 -1.3,14.28l0,0.01z" enable-background="new    " id="path5227" opacity="0.7"/>
   <path d="m-97.5,306.66c-2.77,5.78 -6.36,5.55 -6.7,9.25c-0.6,6.33 2.75,8.61 16.2,15.08c15.74,7.58 17.19,-4.43 36.87,-1.58c15.73,2.28 28.96,20.5 41.31,24.15c19.12,5.64 31,8.7 34.81,0.76c3.33,-6.93 -4.36,-10.97 -4.5,-14.92c-0.15,-4.4 9.65,-4.15 8.82,-11.65c-0.32,-2.92 -4.02,-7.9 -7.25,-9.28c-2.85,-1.21 -20.26,-8.2 -46.59,-10.15c-27.35,-2.03 -59.71,-25.94 -71.67,-15.95c-6.63,5.53 -0.64,9.25 -1.3,14.28l0,0.01z" id="path5227-7" stroke="#000" stroke-linecap="round" stroke-linejoin="round" stroke-width="9"/>
  </g>
  <path d="m209.24,336.36c-4.1,24.78 -30.19,32.99 -60.44,27.51c-16.6,-3.01 -25.11,-2.95 -31.6,-6.06c-5.64,-2.7 -10.4,-8.21 -9.48,-15.08c3.45,-25.76 16.77,-27.64 32.57,-25.5c34.75,4.7 34.65,-8.08 47.78,-6.23c7.69,1.09 22.5,4.89 21.17,25.36z" fill="#fff" id="path3133-6-4-6-9-5-8-3" stroke="#000" stroke-linecap="square" stroke-width="9"/>
  <path d="m300.54,232.96c1.07,7.96 11.44,13.14 23.13,11.55c11.7,-1.58 20.32,-9.34 19.25,-17.3c-1.08,-7.97 -11.9,-16.51 -23.59,-14.92c-11.69,1.59 -19.86,12.71 -18.78,20.67l-0.01,0z" fill="#fff" id="path4134-2-8" stroke="#000" stroke-linecap="square" stroke-width="9"/>
 </g>
</svg>